<svg role="img" viewBox="0 0 32 32" fill="none" xmlns="http://www.w3.org/2000/svg"><title id="logo-title">Amazon Nova Logo</title><desc id="logo-desc">Amazon Nova logo icon</desc><mask id="mask0_10319_77084" maskUnits="userSpaceOnUse" x="0" y="0" width="32" height="32" style="mask-type: luminance;"><path d="M31.8001 0H0V32H31.8001V0Z" fill="white"></path></mask><g mask="url(#mask0_10319_77084)"><mask id="mask1_10319_77084" maskUnits="userSpaceOnUse" x="0" y="0" width="32" height="32" style="mask-type: alpha;"><path d="M17.8652 23.2806L19.3981 24.823C19.4676 24.893 19.49 24.998 19.4527 25.0905L17.0553 31.2075C16.869 31.685 16.4094 32 15.9001 32C15.3908 32 14.9312 31.685 14.7448 31.2075L11.294 22.4032L5.7116 28.0203C5.61471 28.1178 5.4582 28.1178 5.3613 28.0203L3.95514 26.6054C3.85825 26.5079 3.85825 26.3504 3.95514 26.2529L10.8443 19.3209C11.0679 19.096 11.3636 18.941 11.6791 18.9235C12.2306 18.8935 12.7176 19.2209 12.9114 19.7134L15.9026 27.3429L17.4603 23.3656C17.5249 23.1981 17.741 23.1531 17.8677 23.2806H17.8652ZM26.0885 3.97955L20.5061 9.59664L17.0553 0.792286C16.8342 0.229828 16.2404 -0.105148 15.6268 0.0298417C15.2119 0.122335 14.8815 0.437312 14.7274 0.834782L12.3474 6.90684C12.3101 6.99934 12.3325 7.10432 12.4021 7.17432L13.9349 8.7167C14.0616 8.8442 14.2753 8.7992 14.3424 8.63171L15.9001 4.6545L18.8913 12.2839C19.0453 12.6764 19.3832 12.9639 19.7931 13.0489C19.8776 13.0664 19.962 13.0739 20.0465 13.0739C20.372 13.0739 20.69 12.9439 20.926 12.7089L27.8475 5.74442C27.9444 5.64692 27.9444 5.48944 27.8475 5.39195L26.4413 3.97705C26.3444 3.87956 26.1879 3.87956 26.091 3.97705L26.0885 3.97955ZM8.57858 17.566L4.62593 15.9986L12.2083 12.9889C12.6977 12.7939 13.0231 12.3039 12.9933 11.749C12.9759 11.4315 12.8219 11.134 12.5983 10.909L5.7116 3.97955C5.61471 3.88206 5.4582 3.88206 5.3613 3.97955L3.95514 5.39445C3.85825 5.49194 3.85825 5.64943 3.95514 5.74692L9.53756 11.364L0.78755 14.8363C0.313033 15.0238 0 15.4862 0 15.9986C0 16.5111 0.313033 16.9736 0.78755 17.1611L6.86684 19.5734C6.95876 19.6109 7.06311 19.5884 7.13267 19.5184L8.66554 17.976C8.79224 17.8485 8.74752 17.6335 8.58107 17.566H8.57858ZM31.0126 14.8363L24.9333 12.4239C24.8414 12.3864 24.737 12.4089 24.6675 12.4789L23.1346 14.0214C23.0079 14.1487 23.0526 14.3637 23.2191 14.4312L27.1717 15.9986L19.5894 19.0085C19.1 19.2035 18.7745 19.6934 18.8043 20.2484C18.8217 20.5659 18.9757 20.8634 19.1993 21.0882L26.0885 28.0203C26.1854 28.1178 26.3419 28.1178 26.4388 28.0203L27.845 26.6054C27.9419 26.5079 27.9419 26.3504 27.845 26.2529L22.2626 20.6359L31.0126 17.1636C31.4871 16.9761 31.8001 16.5136 31.8001 16.0011C31.8001 15.4888 31.4871 15.0262 31.0126 14.8387V14.8363Z" fill="white"></path></mask><g mask="url(#mask1_10319_77084)"><path d="M-2.91543 34.125L34.533 34.125L34.533 -2.1095L-2.91543 -2.1095L-2.91543 34.125Z" fill="url(#paint0_linear_10319_77084)"></path></g></g><defs><linearGradient id="paint0_linear_10319_77084" x1="33.6628" y1="33.633" x2="-2.08592" y2="-1.90102" gradientUnits="userSpaceOnUse"><stop stop-color="#ff6200"></stop><stop offset="0.398661" stop-color="#e433ff"></stop><stop offset="0.96" stop-color="var(--deprecated-hype-color-violet-600)"></stop></linearGradient></defs></svg>