<svg version="1.1" id="Layer_1" xmlns="http://www.w3.org/2000/svg" xmlns:xlink="http://www.w3.org/1999/xlink" x="0px" y="0px"
	 width="100%" viewBox="0 0 200 200" enable-background="new 0 0 200 200" xml:space="preserve">
<path fill="#FEFFFE" opacity="1.000000" stroke="none" 
	d="
M138.000000,201.000000 
	C92.000000,201.000000 46.500004,201.000000 1.000006,201.000000 
	C1.000004,134.333344 1.000004,67.666679 1.000002,1.000015 
	C67.666656,1.000010 134.333313,1.000010 200.999969,1.000005 
	C200.999985,67.666649 200.999985,134.333298 201.000000,200.999969 
	C180.166672,201.000000 159.333328,201.000000 138.000000,201.000000 
M31.684750,152.583084 
	C41.233311,152.583084 50.781876,152.583084 60.983845,152.583084 
	C60.074638,151.217636 59.721107,150.672470 59.353611,150.136902 
	C50.644062,137.443527 48.113125,123.870277 54.852036,109.662689 
	C58.297005,102.399696 63.127079,95.829292 63.765003,87.417847 
	C64.027641,83.954758 64.943565,80.537231 65.621803,77.110748 
	C66.335838,73.503448 68.172577,72.627556 71.234261,74.914055 
	C75.618835,78.188507 79.806732,81.796440 84.483864,84.581390 
	C87.081360,86.128036 90.466614,86.732727 93.559547,86.981216 
	C98.825432,87.404289 104.143524,87.334175 109.433945,87.215538 
	C111.467133,87.169945 113.781837,86.912056 115.447739,85.896790 
	C118.976280,83.746353 122.071335,80.897629 125.518791,78.596970 
	C128.186417,76.816742 131.119507,75.434303 133.934570,73.875031 
	C135.004822,76.853867 136.229446,79.787758 137.112350,82.821129 
	C138.817169,88.678268 138.989426,95.474876 142.178604,100.311752 
	C150.870285,113.494064 152.901413,126.884033 146.981552,141.422394 
	C145.470093,145.134323 143.323639,148.587692 141.264801,152.552979 
	C152.647812,152.552979 163.613251,152.648758 174.575180,152.495071 
	C177.898285,152.448471 179.743835,151.010147 178.608475,146.990326 
	C172.923584,126.862793 167.436478,106.679413 161.882248,86.515007 
	C158.400085,73.873085 154.960388,61.219292 151.424591,48.592400 
	C149.886978,43.101391 145.592361,41.032288 141.315125,43.797874 
	C130.870392,50.551262 120.432243,57.321560 110.154152,64.323875 
	C102.163605,69.767715 100.434029,70.013596 92.408775,64.775795 
	C81.988602,57.974918 71.614059,51.104145 61.209122,44.279865 
	C56.461380,41.165977 51.985844,42.734558 50.449394,48.242405 
	C41.262497,81.175461 32.144203,114.127663 23.001406,147.073029 
	C22.082792,150.383179 23.294331,152.247955 26.746481,152.515244 
	C28.071928,152.617859 29.409426,152.564804 31.684750,152.583084 
M92.415665,122.466660 
	C92.415665,118.370636 92.415665,114.274612 92.415665,110.176697 
	C89.436699,110.176697 87.012833,110.176697 84.330704,110.176697 
	C83.726074,117.766251 83.140991,125.110451 82.548035,132.553528 
	C86.148117,132.553528 89.058853,132.553528 92.415627,132.553528 
	C92.415627,129.358582 92.415627,126.397659 92.415665,122.466660 
M115.422531,132.816681 
	C117.510132,132.934036 119.423340,133.083725 119.066490,129.888092 
	C118.334564,123.333687 117.820518,116.754936 117.225533,110.281487 
	C114.387962,110.281487 111.849701,110.281487 109.400383,110.281487 
	C109.400383,117.896881 109.400383,125.122971 109.400383,132.816757 
	C111.280701,132.816757 112.895836,132.816757 115.422531,132.816681 
z"/>
<path fill="#2CE157" opacity="1.000000" stroke="none" 
	d="
M31.213093,152.582886 
	C29.409426,152.564804 28.071928,152.617859 26.746481,152.515244 
	C23.294331,152.247955 22.082792,150.383179 23.001406,147.073029 
	C32.144203,114.127663 41.262497,81.175461 50.449394,48.242405 
	C51.985844,42.734558 56.461380,41.165977 61.209122,44.279865 
	C71.614059,51.104145 81.988602,57.974918 92.408775,64.775795 
	C100.434029,70.013596 102.163605,69.767715 110.154152,64.323875 
	C120.432243,57.321560 130.870392,50.551262 141.315125,43.797874 
	C145.592361,41.032288 149.886978,43.101391 151.424591,48.592400 
	C154.960388,61.219292 158.400085,73.873085 161.882248,86.515007 
	C167.436478,106.679413 172.923584,126.862793 178.608475,146.990326 
	C179.743835,151.010147 177.898285,152.448471 174.575180,152.495071 
	C163.613251,152.648758 152.647812,152.552979 141.264801,152.552979 
	C143.323639,148.587692 145.470093,145.134323 146.981552,141.422394 
	C152.901413,126.884033 150.870285,113.494064 142.178604,100.311752 
	C138.989426,95.474876 138.817169,88.678268 137.112350,82.821129 
	C136.229446,79.787758 135.004822,76.853867 133.934570,73.875031 
	C131.119507,75.434303 128.186417,76.816742 125.518791,78.596970 
	C122.071335,80.897629 118.976280,83.746353 115.447739,85.896790 
	C113.781837,86.912056 111.467133,87.169945 109.433945,87.215538 
	C104.143524,87.334175 98.825432,87.404289 93.559547,86.981216 
	C90.466614,86.732727 87.081360,86.128036 84.483864,84.581390 
	C79.806732,81.796440 75.618835,78.188507 71.234261,74.914055 
	C68.172577,72.627556 66.335838,73.503448 65.621803,77.110748 
	C64.943565,80.537231 64.027641,83.954758 63.765003,87.417847 
	C63.127079,95.829292 58.297005,102.399696 54.852036,109.662689 
	C48.113125,123.870277 50.644062,137.443527 59.353611,150.136902 
	C59.721107,150.672470 60.074638,151.217636 60.983845,152.583084 
	C50.781876,152.583084 41.233311,152.583084 31.213093,152.582886 
z"/>
<path fill="#070707" opacity="1.000000" stroke="none" 
	d="
M92.415649,122.951698 
	C92.415627,126.397659 92.415627,129.358582 92.415627,132.553528 
	C89.058853,132.553528 86.148117,132.553528 82.548035,132.553528 
	C83.140991,125.110451 83.726074,117.766251 84.330704,110.176697 
	C87.012833,110.176697 89.436699,110.176697 92.415665,110.176697 
	C92.415665,114.274612 92.415665,118.370636 92.415649,122.951698 
z"/>
<path fill="#0F0F0F" opacity="1.000000" stroke="none" 
	d="
M114.966751,132.816711 
	C112.895836,132.816757 111.280701,132.816757 109.400383,132.816757 
	C109.400383,125.122971 109.400383,117.896881 109.400383,110.281487 
	C111.849701,110.281487 114.387962,110.281487 117.225533,110.281487 
	C117.820518,116.754936 118.334564,123.333687 119.066490,129.888092 
	C119.423340,133.083725 117.510132,132.934036 114.966751,132.816711 
z"/>
</svg>