<svg xmlns="http://www.w3.org/2000/svg" xml:space="preserve" viewBox="0 0 200 200">
  <path fill="#FFF" d="M201 84v117H1c0-39.7 0-79.4.4-119.6 1.4-.6 2.9-1.2 3.6-.8 6 3.8 10.2.8 14.2-3.3l1.2-.8c2.8 2 5 4.4 7.8 5.3 3.5 1 7.5 1 11.2 1.2l54 1c24.8.4 49.6.8 74.3 1 11.1 0 22.2-.7 33.3-1m-49.1 37.5c-.2-.3-.4-.4-.8-.5v-.9c-1.8-1.7-3.3-4.1-5.4-4.9a26 26 0 0 0-9.2-1.1c-3.8 0-7.7.6-12.4 1-3 0-6-.2-9.3-1-4.3-.8-8.6-2-13-2-18.6-.2-37.2-.1-55.8 0a34 34 0 0 0-7.8 1c-4.2 1.3-6.5 5.4-6.2 10.2.2 3.9 2.2 5.8 6 5.7v.7c1.3 4.5 5.1 2.8 7.8 2.8 14.1 0 28.2-.3 42.2-.5 2.3 0 4.5-.5 6.7-.3 3 .2 6 .8 9 1.3l-3.5 4.7-.1.4h-.4l-1.3 1c-.4 0-.9 0-1.4-.6-4.4-2-3.6 1.5-4.3 4.2a55 55 0 0 1-4.2 4.6c-.2.3-.3.6-.5 1.6 0 .7 0 1.4-.8 2.2l-8.2 1v-.8c-1.7-1-3.5-2-5-3.2 0 0-.2.1-.1-.6-3.6-4.4-8.6-4.6-12.2-1.7-1.7 1.4-.8 6.5-.6 10 .1 1.3 1.4 2.9 2.6 3.8 3.7 3 7.8 5.4 11.3 8.6 2.4 2.1 4.2 4.8 8.5 3.9.3.1.5.3.6 1.4l3.5 1.5c.5.4 1 .7 1.6 1.5l.8.5v.6c.3.5.3 1.1.6 1.3 4.4 3.3 8.7 6.7 13.3 9.7.5.4 2.2-1 3.8-1.5l1.5.7c4 .2 3-2.9 2.5-4.8-1-5-2.5-10-4-15-.2-.9-1.6-1.4-2.7-2.6 0-.5 0-1 .6-1.9l-1.7-7.2c0-.4.1-.8.9-1.4 3.4-1.6 6.9-4.6 10.4-4.6 10.8 0 20.4-4.6 30.5-7.4 3.7-1 8.6-3.1 8.3-9h.6c4.5-4.4 3.8-9.3-1.6-10.9l-.2-.4c-.1-.3-.4-.5-.8-.6l-.1-.5M17.9 107h91.6c1.9 0 3.8-1.2 6.5-1.9 4.3 0 8.6 0 13.1.8l4.7-1c1.4 0 2.8 0 4.7.7 1 .1 2 .4 3 .4 11 .3 22 1 33.1.7 3.5 0 6.9-3.2 10.4-5.4.2-.2.4-.4 1.4-.4l4 .6.4-1-5.5-2.5c-.3-.2-.4-.5-.4-1.6-1.2-.8-2.4-2.1-3.7-2.4-2.2-.4-4.6 0-6.8-.1-10-.6-19.8-1.2-29.7-2-9-.5-17.8-1.6-26.8-1.8-12.2-.3-24.5 0-36.7 0-.4.1-.8.6-2 1-2.1 0-4.1-.1-6.4-1-7.6-.8-15.2-1.8-22.8-2.2-8.7-.4-17.5-.2-26.3-.1-4.5 0-9.3-.5-13.6.6-2.6.6-6 3.4-6.7 5.8-1.5 6 4 11.7 11.1 12.1.8.2 1.7.5 3.4.7zM1 64V1h200c0 22 0 44-.4 66.5-1 .3-1.7.3-2.3 0-5.5-2.4-4.4-7.4-4.2-12 .1-4.5-1.4-6.5-6.3-6.6-8.4-.3-16.7-1.3-25-1.9-2.8-.1-4-1.4-3.5-4a9 9 0 0 0 1.7-3.4l1-8 1-9-1-4c-1.5-.8-3-1.8-4.3-1.7-7.9.6-15.6 4-23.9.8-1.5-.8-2.8-1.5-4.2-1.6h-17.1l-9.9-.1c-1.1 0-1.9 0-2.7-.3-.9-1.6-1.5-3-2.6-4C94.4 9.1 91.5 6.4 87 8c-5.7 1.8-7.7 5.1-7 12.5 0 2.9 0 5.2-.3 7.8-.1 2 0 3.6.2 6.8l-16.4-2.7-3.4-.3c-7-.3-14-.8-21-.6-2 0-4.9 1.6-5.5 3.2a22.7 22.7 0 0 0-2.3 11.5c1 5.5.8 10.3-2.5 15.2-2.2 2.3-4.4 4.2-6.8 6.5-1-.9-2.6-2-4-3.4-3.3-3.6-7.3-4.2-11.7-3C4.4 62 2.8 63.2 1 64z"/>
  <path fill="#FAD22A" d="M201 77c0 1 0 2.1-.4 3.6-3.6.8-6.7 1.5-9.8 1.5L46.5 80.8c-5.3 0-10.6-.6-16-1-5.2-.3-5.9-3.9-5.7-8.1.2-4 2-6.7 6.4-6.7 4 0 8 0 12 .2l72.6 4.7c23.6 1.4 47.2 2.7 70.7 4.3 4.9.3 9.7 1.8 14.5 2.8z"/>
  <path fill="#FEFEFE" d="M159 43c-.1 2.6 1 3.9 3.7 4 8.4.6 16.7 1.6 25.1 1.9 4.9.1 6.4 2.1 6.3 6.7-.2 4.5-1.3 9.5 4.2 12l2.3.4c.4 1.7.4 3.4 0 5.5-2.9-.2-5.4-1.1-7.9-1.4-2.6-.4-5.3 0-8-.2l-57-3.9c-7.9-.5-15.8-.6-23.8-1-19.6-1.3-39.3-2.7-58.8-4.3 2.1-1.4 4.4-2.2 6.3-3.5 1.7-1.1 3-2.8 5-4.2l1.7-.1v.3c1 1.2 1.7 2.6 2.7 2.7 6.4.9 12.7 1.7 19.1 2 4 .2 8-.6 12.6-1 3.5 0 6.5.2 9.7.6 1.5.7 2.7 1.4 3.9 1.5 11.9.4 23.8.8 35.7 1h33.9c2.3 0 5.8.2 3.1-4.4 0-.7 0-1.1.4-1.8.2-1.3.4-3 0-3.2-4.2-1.7-8.4-4.4-13.6-1.5-1.5 0-2.5-.2-3.7-.7-3-1-6-1.7-9-2.8-1.7-.8-3.3-1.2-5.3-1.6-1.1 0-1.9 0-2.6-.4 0-1.1 0-1.8.4-2.6 1.7-1.3 3.2-2.7 5-4h1.8c.5 0 .6 0 .8.3l1 2c.8 4.3 3 2.4 5 1.7z"/>
  <path fill="#FEFBE8" d="m45 63 59 4c7.9.4 15.8.5 23.8 1l57 4c2.6 0 5.3-.3 8 0 2.4.4 5 1.3 7.8 2 .4.8.4 1.5.4 2.6-4.8-.6-9.6-2-14.5-2.4-23.5-1.6-47.1-2.9-70.7-4.3l-72.6-4.7c-4-.2-8-.2-12-.2-4.4 0-6.2 2.6-6.4 6.7-.2 4.2.5 7.8 5.8 8.2 5.3.3 10.6.9 15.9 1L190.8 82c3.1 0 6.2-.7 9.8-1.1.4.8.4 1.5.4 2.6-11.1.7-22.2 1.4-33.3 1.3-24.7 0-49.5-.5-74.2-1-18-.2-36-.5-54-1-3.8 0-7.8 0-11.3-1.1-2.8-.9-5-3.4-7.8-5.3l-1.2.8c-4 4.1-8.2 7.1-14.2 3.3-.7-.4-2.2.2-3.6.4-.4-1.7-.4-3.4 0-5.5 1.4.7 2.5 2.3 3.7 2.5 3.3.4 7.2 1.1 10-.2 1.8-.8 3-4.9 3-7.6 0-4-3.2-6-6.8-6.9-4.9-1-7.4 2.9-10.3 5.7v-4.6c1.8-1.3 3.4-2.4 5.3-3 4.4-1.2 8.4-.6 11.8 3 1.3 1.4 2.8 2.5 3.9 3.4a195 195 0 0 1 7.3-6.5c5.6.4 10.6 1 15.7 1.7z"/>
  <path fill="#F8D432" d="M1 69.4c3-3.2 5.4-7 10.3-6 3.6.7 6.9 2.9 6.8 6.8 0 2.7-1.2 6.8-3 7.6-2.8 1.3-6.7.6-10 .2-1.2-.2-2.3-1.8-3.8-2.9-.3-1.8-.3-3.5-.3-5.7z"/>
  <path fill="#E74841" d="M97 139.2c.5 0 1 0 2-.3.9-.2 1.1-.4 1.2-.8h.3l32-7.5a5.8 5.8 0 0 0-3.8-1.3c-12.6 0-25.3.3-37.9.2-17.6 0-35.2-.3-52.8-.5l-.2-.3c-2.7-2.4-5.4-5-3.7-8.2 1.1-2.4 3.8-4.3 6.2-5.7 1.6-.9 3.9-.7 5.9-.8h19.4l49.4.7 9.9.6c9.4 1.1 18.4.3 26.2 5.5v.4c.3.5.6.7 1 .7v.3c.3.5.6.7.9.9v.3l.9 10.5-.3.2c-5.8 7-13.8 9-21.7 10.8-7.5 1.7-15.1 2.8-22.6 4.5-2.7.6-6.3 1.1-5.2 5.6l-.2 2 1 7 .2 2c1.4 6 3 11.1 4.2 16.4.3 1.6-.6 3.4-1 5.2a6586.1 6586.1 0 0 1-18.2-10.7l-.1-.2c-.4-.4-.7-.5-1-.6-.5-.4-1-.7-1.8-1.5l-3.1-1.8c0-.4-.3-.6-1-1L74 165c-3.6-3-7.6-5.6-10.4-9.1-1.3-1.7-1.3-5.6-.2-7.5.8-1.4 4.4-1.3 6.8-1.5 1.2 0 2.4.9 3.6 1.3a40.1 40.1 0 0 0 5.2 3.9v.3c2.8 2.2 5.5 4.1 8.9 6.5v-8c0-.6 0-1.3.4-2.5l.6-1.4 4.3-4.6 3.9-3.2z"/>
  <path fill="#F5942A" d="M128.9 105.2c-4.3 0-8.6 0-13.7-.2H16.6l-2.8-.3c-5.8-1.5-7.3-3.6-7-8.8.4-5 3.6-6.4 7.9-6.5 2.1-.1 4.3 0 6.4.1l52 1.4c2 0 4 .2 6.8.4 23.6 1 46.5 1.8 69.4 3 11.9.5 23.7 1.9 35.6 3 0 .2.1.5.6 1.1.2 1.1.2 1.8.2 2.5-.3 0-.5.2-1.2.7-9 1-17.6 1.9-26.2 2.5-6.8.4-13.5.6-20.3.8h-5c-1.8 0-3 .1-4.1.3z"/>
  <path fill="#FEF3F2" d="M38 129.3c17.6-.1 35.2.1 52.8.2l38-.2c1.2 0 2.4.3 3.7 1.3l-32 7.6c-.4-.2-.4-.4-.3-.5l3.4-4.7c-3-.5-5.9-1.1-8.9-1.3-2.2-.2-4.4.3-6.7.3-14 .2-28.1.5-42.2.5-2.7 0-6.5 1.7-7.8-3.2z"/>
  <path fill="#FEFBE8" d="M185 96.8c-12-.6-23.8-2-35.7-2.6-22.9-1.1-45.8-1.8-69-3 0-.5.5-1 .9-1 12.2-.1 24.5-.4 36.7-.1 9 .2 17.8 1.3 26.8 1.9l29.7 1.9c2.2.1 4.6-.3 6.8.1 1.3.3 2.5 1.6 3.7 2.8z"/>
  <path fill="#FEF3F2" d="M114.9 114.4c-16.3 0-32.8-.2-49.3-.4H46.2c-2 0-4.3-.1-5.9.8-2.4 1.4-5 3.3-6.2 5.7-1.7 3.3 1 5.8 3.8 8.2-3.7.4-5.7-1.5-6-5.4-.2-4.8 2-8.9 6.3-10.1 2.5-.7 5.2-1.1 7.8-1.1 18.6-.1 37.2-.2 55.8 0 4.4 0 8.7 1.2 13.1 2.3z"/>
  <path fill="#FEFBE8" d="M73 90.5c-17.3 0-34.6-.5-51.9-1-2.1 0-4.3-.2-6.4-.1-4.3 0-7.5 1.5-7.8 6.5-.4 5.2 1.1 7.3 6.8 9 .3.7.3 1 .3 1.1-6.5 0-12-5.8-10.6-11.8.7-2.4 4-5.2 6.7-5.8 4.3-1 9-.6 13.6-.6 8.8 0 17.6-.3 26.3.1 7.6.4 15.2 1.4 23 2.6z"/>
  <path fill="#FEFBE8" d="M17 105h97.8c-1.5.8-3.4 2-5.3 2-30.5 0-61 0-92-.3-.5-.8-.5-1.2-.5-1.6z"/>
  <path fill="#FEF3F2" d="M104.4 155c-1.4-4.5 2.2-5 5-5.6 7.4-1.7 15-2.8 22.5-4.5 8-1.8 16-3.8 21.7-10.8.7 5.7-4.2 7.7-8 8.8-10 2.8-19.6 7.4-30.4 7.4-3.5 0-7 3-10.8 4.7zm-30.6-7.2c-1.2 0-2.4-1-3.6-.9-2.4.2-6 .1-6.8 1.5-1 1.9-1 5.8.2 7.5 2.8 3.5 6.8 6.2 10.4 9 2.8 2.3 5.8 4.4 8.9 6.8-3.7 1.3-5.5-1.4-8-3.5-3.4-3.2-7.5-5.6-11.2-8.6-1.2-1-2.5-2.5-2.6-3.9-.2-3.4-1.1-8.5.6-9.9 3.6-2.9 8.6-2.7 12.1 2z"/>
  <path fill="#FEFBE8" d="M138.3 105.3c6.5-.6 13.2-.8 20-1.2 8.6-.6 17.2-1.5 26.2-2.3-3 1.7-6.4 4.8-9.9 5-11 .3-22-.5-33.1-.8-1 0-2-.3-3.2-.7z"/>
  <path fill="#FEF3F2" d="M151 120.5c-7.7-4.9-16.7-4.1-25.7-5.3 3.5-.5 7.4-1 11.2-1.1 3.1 0 6.4 0 9.2 1.1 2.1.8 3.6 3.2 5.4 5.3zm-42.3 67.2c0-1.9 1-3.7.6-5.3-1.2-5.3-2.8-10.4-4.1-16 .9.2 2.3.7 2.5 1.6 1.5 5 3 10 4 15 .4 1.9 1.6 5-3 4.7zM90 177.2c5.7 3 11.3 6.2 17.1 9.7-1 .7-2.7 2-3.2 1.7-4.6-3-9-6.4-13.3-9.7-.3-.2-.3-.8-.5-1.7zM87.5 151c.4 2.2.4 4.5.4 7.9l-8.9-6.5c2.7-.7 5.4-1 8.5-1.4zm66.7-17.1c-.6-3.4-.9-6.7-1.2-10.5 5.4 1.2 6.1 6.1 1.2 10.5zm-48.9 29.9a28 28 0 0 1-1.3-6.4c.6 1.8 1 4 1.3 6.4zm-8.3-25a17 17 0 0 1-3.7 3.3c0-2.1-.7-5.6 3.7-3.3z"/>
  <path fill="#FEFBE8" d="M186 100.9c-.3-.7-.3-1.4-.3-2.4a27 27 0 0 1 5.1 2l-.4 1-4.4-.6z"/>
  <path fill="#FEF3F2" d="M79 151.7a20 20 0 0 1-5-3.2c1.5.7 3.3 1.8 5 3.2z"/>
  <path fill="#FEFBE8" d="M129 105.5c1-.5 2.2-.6 3.7-.6-1 .4-2.3.7-3.7.6z"/>
  <path fill="#FEF3F2" d="M84 173.1c1 .2 1.9.7 3 1.5a7 7 0 0 1-3-1.5zM16.6 105c.4.5.4 1 .4 1.7-.8 0-1.7-.2-2.7-.5-.3-.4-.3-.6-.3-1 .8-.3 1.5-.3 2.6-.2zm72.1 42.1c.1.2 0 .5-.4 1 0-.2 0-.5.4-1zm11.3-9c.1.4-.1.6-.7.7-.1-.3 0-.5.6-.7zm52.9-15.3c-.2 0-.5-.1-.8-.6.3-.1.6.1.8.6zm-.9-1.1c-.3.2-.6 0-.8-.5.3-.1.5 0 .7.5zm-62.9 54.6c.2 0 .5 0 1 .4-.3.2-.6 0-1-.4z"/>
  <path fill="#FDFEFE" d="M45 62.7c-5-.4-10.1-1-15.6-1.7 2.7-4.6 2.9-9.4 2-15-.7-3.5.7-7.8 2.2-11.4.6-1.6 3.5-3.2 5.5-3.2 7-.2 14 .3 21 .6l3.4.3L79.9 35c-.2-3.2-.3-4.9.1-6.6 2.5 3.2 4.1 7 9.4 4.3 1.1.2 1.9.3 2.6.8 5.2 3.4 10.6 3 16.4 1.3.7 0 1.2.2 1.7.6 1 .8 2 1.5 3 1.5 10.6.5 21.2.7 31.7 1.1 1.8.1 3.5.7 5.2 1a21.4 21.4 0 0 1-4.8 3.7c-2.5-1-4.5-1.9-6.5-2-3.1-.2-6.3.4-9.4.1-4.3-.3-8.7-1.8-13-1.6-3.1.2-6.2 2.5-9.7 3.7l-15 .2a5 5 0 0 1-2.7-.7c-1.7-1-3.4-2.2-5.1-2.3-4.5-.4-9-.4-13.4-.5h-6.7c-3.6 0-8.5 1.4-10.4-.4a17 17 0 0 0-12.9-4.6c-5.3 0-7.4 4.5-5.2 9.8 0 .7 0 1.1-.4 1.8.6 4 1.5 7.8 2.5 12.3 5-1.8 9.4-3 13.3-5 3-1.7 4.1-.8 5.4 1.5-1.5 1.4-2.9 3.1-4.6 4.2-1.9 1.3-4.2 2-6.3 3.5z"/>
  <path fill="#FEFEFE" d="M154 41c-.3-.5-.6-1-.7-1.9.8-1.6 1.2-2.9 1.7-4.5l.1-4.9 1.2-3.7c-1.2-.2-2.4-.7-3.5-.7-1.3 0-2.6.4-4 .7-.3 0-.8 0-.8-.3 0-.8 0-1.3.4-1.7a71 71 0 0 0 4.5-1c-3.5-2.4-5.1-2.5-6.3.8a262.5 262.5 0 0 0-12.6-1.1V18c8 3 15.8-.5 23.7-1.1 1.4-.1 2.8.9 3.9 1.8l-3.7 2.8.4 1.3 4.7.2a78 78 0 0 1-1.4 8.7L154 41z"/>
  <path fill="#FDFEFE" d="M133.8 17.7c.2 1.7.2 3.2-.2 5-2.8.4-5.2.4-8 .5-.7-.1-1.2-.2-1.7-.7-2-2.6-4.3-3.6-7.3-1.3-.8-.1-1.2-.3-1.8-.7-2.7-.7-5.3-1-8.1-1.4-.8-.1-1.3-.2-1.7-.6l-2-2.5h9.5l17.1.1c1.4 0 2.7.8 4.2 1.6zM80 20c-.7-7 1.3-10.3 7-12.1 4.5-1.5 7.4 1.2 10.3 3.8 1 1 1.7 2.4 2.3 4a7 7 0 0 1-2 1.5c-.7 0-1.2-.2-1.6-.7-3.6-3.8-7.8-4.2-11.1-1.3-1.7 1.5-3.3 3.2-4.9 4.8z"/>
  <path fill="#F3FDF6" d="M80 20.4a41 41 0 0 1 4.9-5.2c3.3-2.9 7.5-2.5 10.6 1.4-1.6.2-2.9 0-4.2-.2-5.9-.9-9.4 2.4-9.4 8.4 0 4.8 3 6.9 7.1 8-4.9 2.6-6.5-1.2-8.7-4.6-.3-2.6-.3-5-.3-7.8z"/>
  <path fill="#FDFEFE" d="M154 41.4c2.4-3.4 4.9-6.3 7.6-9.3a27 27 0 0 1-.9 7.6c-.8 1.4-1.3 2.3-1.7 3.3-2 .7-4.2 2.6-5-1.6zm9-18.8c-1.6.3-3.1.3-4.7.2l-.4-1.3 3.7-2.5c.7 1.1 1 2.2 1.4 3.6z"/>
  <path fill="#F3FDF6" d="M98 17.2c.4-.4.9-.8 1.7-1.2h3c1 .7 1.6 1.5 1.9 2.5-2.4-.2-4.5-.7-6.6-1.3z"/>
  <path fill="#FEFEFE" d="M159.3 43c.1-1 .6-2 1.4-3-.1 1-.6 2-1.4 3z"/>
  <path fill="#58C44D" d="m89 42.8 3 .6 15.4 1.5 2.9.4c5.8.7 11.2 1.1 17 1.7.8.1 1.2 0 2 .3 11.1 1.3 22 2.4 32.7 3.5 1 0 2.1.2 3.9.5 5 1.4 10 0 13 4.7 0 .5 0 .9-.4 1.9-2 1-4 2-5.8 2-6.6.3-13.3.2-19.9.1l-50.8-.8-9.9-.5c-4.2-.3-7.7-.3-11.1-.7l-22.8-3.2s-.1.1-.1-.3c-3.1-6.7-1.2-11.7 5.1-12.9 2.4-.4 5-.3 7.4-.1 6.2.3 12.3.9 18.4 1.3z"/>
  <path fill="#F3FDF6" d="M89 42.4c-6.1 0-12.2-.6-18.4-1-2.4 0-5-.2-7.4.2-6.3 1.2-8.2 6.2-5 12.9-.5.4-1 .4-1.8.5-1.7-2.3-2.8-3.2-5.8-1.6-3.9 2.2-8.3 3.3-13.3 5-1-4.4-1.9-8.2-2.3-12 2.3 6 6.6 8.3 12.3 6.4 4-1.4 6-6.5 4-11.3a8 8 0 0 0-11.2-3.7c-2.2 1.2-3.3 4.1-5 6.2-2-4.9 0-9.3 5.3-9.4 4.6-.1 9 1 13 4.6 1.8 1.8 6.7.3 10.3.3h6.7c4.4.2 9 .2 13.4.6 1.7.1 3.4 1.3 5.1 2.3z"/>
  <path fill="#FEFEFE" d="M129 47c-.5 0-1 .1-1.8-.3-5.8-3-11.4-3.8-17.2-1.7-.8 0-1.5 0-2.6-.4-.4-.8-.4-1.2-.4-1.6 3.1-1.3 6.2-3.6 9.3-3.8 4.3-.2 8.7 1.3 13 1.6 3 .3 6.3-.3 9.4-.1 2 .1 4 1 6.1 2 .2 1 .2 1.8 0 3.2-5.5.8-10.6 1-15.8 1.2z"/>
  <path fill="#F3FDF6" d="M102.2 59.5c16.8 0 33.7.3 50.6.5 6.6.1 13.3.2 20 0 1.8 0 3.6-1 5.8-1.8 2.9 4-.6 3.7-3 3.8h-33.8c-11.9-.2-23.8-.6-35.7-1-1.2 0-2.4-.8-3.9-1.5zM150.3 39c-2-.3-3.7-.9-5.5-1l-31.6-1c-1 0-2-.8-2.7-1.6 14-.2 27.7.1 41.4.8V39h-1.6zm-21 8.3 15.5-1c1-.3 1.7-.3 2.9 0 2 .9 3.7 1.3 5.3 1.7 3 .7 6 1.3 9 2.4-10.8-.7-21.6-1.8-32.7-3.1zm-71.2 7.9c7.7.7 15.3 1.9 22.9 2.8 3.4.4 6.9.4 10.7.7-3.7.6-7.8 1.4-11.8 1.2-6.4-.3-12.7-1.1-19-2-1-.1-1.9-1.5-2.8-2.7zm121.1.6c-3.2-4.4-8.4-3.1-13-4.5 4.6-3 8.8-.4 13 1.3.4.1.2 2 0 3.2z"/>
  <path fill="#FEFEFE" d="M153 47.6c-1.6 0-3.2-.4-5-1.2 1.6 0 3.2.4 5 1.2z"/>
  <path fill="#FDFEFE" d="M152.2 39c-.2-.8-.2-1.6-.3-2.8 0-.3 0-.3.3-.3l2.8-.9a27 27 0 0 1-1.7 3.8l-1 .2z"/>
  <path fill="#3692DE" d="m151.8 35.8-41.3-.8A844.6 844.6 0 0 0 92 33.2l-2.6-.5c-4.5-1-7.4-3-7.5-8 0-5.9 3.5-9.2 9.4-8.3l4.3.5 2 .3 7 1.6c.8 0 1.3.2 2.3.5 3.1.7 5.6 1 8 1.5l2 .6 7.1 1.4 1.9.6 23 5.7c3.7 1 5.5 3 3 6.8z"/>
  <path fill="#5CC451" d="M35.2 44.4c1.6-2.5 2.7-5.4 4.9-6.6a8 8 0 0 1 11.2 3.7c2 4.8 0 9.9-4 11.3-5.7 2-10-.3-12-6.6v-1.8z"/>
  <path fill="#F3FDF6" d="M92 33.5c5.1 0 10.2.5 15.7 1.2-5.1 1.8-10.5 2.2-15.7-1.2zm14.6 9.5c.4.4.4.8.4 1.5-4.8-.1-9.6-.5-14.7-1.2 4.4-.3 9.1-.3 14.3-.4zm45.6-7.1c2.2-3.9.4-5.9-3.4-6.8-7.4-1.9-14.9-3.6-22.6-5.7 2.2-.3 4.6-.3 7.4-.4.8 0 1.3 0 2.3.3L148 26s.5 0 .9.3L155 30v4.6a6 6 0 0 1-2.8 1.3z"/>
  <path fill="#FDFEFE" d="M148 25.7c-3.8-.5-7.7-1.3-11.8-2.4a96.8 96.8 0 0 1 11.8.7v1.7zm7.1 4c-2-.8-3.9-2-6-3.4a8 8 0 0 1 3.7-1c1.1 0 2.3.5 3.5.7l-1.2 3.7z"/>
  <path fill="#FFF" d="M148.4 24h-1.2c.6-3.5 2.2-3.4 5.7-1a71 71 0 0 1-4.5 1z"/>
  <path fill="#F3FDF6" d="M124 22.5a30 30 0 0 1-6.8-1.1c2.4-2.5 4.6-1.5 6.7 1zm-9.2-2c-2.3-.1-4.8-.5-7.5-1.2 2.2.1 4.8.5 7.5 1.2zm-4.5 24.8c5.5-2.4 11-1.6 16.6 1.2a160 160 0 0 1-16.6-1.2z"/>
</svg>
