<svg xmlns="http://www.w3.org/2000/svg" fill="none" viewBox="0 0 180 180">
  <g clip-path="url(#a)">
    <path fill="#000" d="M0 59.8C0 10.5 10.5 0 59.8 0h60.4C169.5 0 180 10.5 180 59.8v60.4c0 49.3-10.5 59.8-59.8 59.8H59.8C10.5 180 0 169.5 0 120.2V59.8Z"/>
    <g opacity=".3">
      <mask id="b" width="180" height="180" x="0" y="0" maskUnits="userSpaceOnUse" style="mask-type:alpha">
        <path fill="#C4C4C4" stroke="#000" d="M59.8.5h60.4c12.3 0 22.2.7 30 2.4a35.2 35.2 0 0 1 18 8.9 35.2 35.2 0 0 1 8.9 18c1.7 7.8 2.4 17.7 2.4 30v60.4c0 12.3-.7 22.2-2.4 30a35.2 35.2 0 0 1-8.9 18 35.2 35.2 0 0 1-18 8.9c-7.8 1.7-17.7 2.4-30 2.4H59.8c-12.3 0-22.2-.7-30-2.4a35.2 35.2 0 0 1-18-8.9 35.2 35.2 0 0 1-8.9-18c-1.7-7.8-2.4-17.7-2.4-30V59.8c0-12.3.7-22.2 2.4-30a35.2 35.2 0 0 1 8.9-18 35.2 35.2 0 0 1 18-8.9C37.6 1.2 47.5.5 59.8.5Z"/>
      </mask>
      <g mask="url(#b)">
        <mask id="c" width="92" height="92" x="89" y="89" maskUnits="userSpaceOnUse" style="mask-type:alpha">
          <path fill="#D9D9D9" stroke="#000" d="M90 90h90v90H90z"/>
        </mask>
        <g mask="url(#c)">
          <path fill="#D77655" fill-rule="evenodd" d="M15.4-46h149.2A61.7 61.7 0 0 1 226 15.7v148.6c0 34-27.6 61.7-61.4 61.7H15.4A61.7 61.7 0 0 1-46 164.3V15.7c0-34 27.6-61.7 61.4-61.7Z" clip-rule="evenodd"/>
          <path fill="#000" fill-rule="evenodd" d="M15.4-46h149.2A61.7 61.7 0 0 1 226 15.7v148.6c0 34-27.6 61.7-61.4 61.7H15.4A61.7 61.7 0 0 1-46 164.3V15.7c0-34 27.6-61.7 61.4-61.7Z" clip-rule="evenodd"/>
          <path stroke="#000" d="M15.4-46h149.2A61.7 61.7 0 0 1 226 15.7v148.6c0 34-27.6 61.7-61.4 61.7H15.4A61.7 61.7 0 0 1-46 164.3V15.7c0-34 27.6-61.7 61.4-61.7Z" clip-rule="evenodd"/>
          <mask id="d" width="141" height="141" x="19" y="22" fill="#000" maskUnits="userSpaceOnUse">
            <path fill="#fff" d="M19 22h141v141H19z"/>
            <path d="m47.9 115.1 27-15.1.4-1.3-.5-.8h-1.3l-4.5-.2-15.4-.4-13.3-.6-13-.7-3.2-.7-3.1-4 .3-2 2.8-1.9 3.9.4 8.6.6 13 .9 9.5.5 14 1.5h2.2l.3-1-.8-.5-.6-.5-13.4-9.1-14.6-9.7-7.6-5.5-4.1-2.8-2.1-2.7-1-5.7 3.8-4.1 5 .3 1.3.3 5.1 4 11 8.4L71.7 73l2 1.8.9-.6v-.4l-.9-1.6-7.7-14L57.7 44l-3.6-5.9-1-3.5c-.3-1.4-.6-2.7-.6-4.2l4.3-5.7 2.3-.8 5.7.8 2.4 2L71 35l5.7 12.7L85.5 65l2.6 5.2 1.3 4.7.6 1.5h.9v-.9l.7-9.7 1.3-12 1.4-15.4.4-4.3 2.2-5.2L101 26l3.4 1.6 2.7 4-.4 2.4-1.6 10.6-3.2 16.6-2 11h1.1l1.4-1.3 5.6-7.5 9.5-11.7 4.1-4.7 4.9-5.2 3.1-2.5h5.9l4.3 6.5-2 6.6-6 7.7-5 6.6-7.2 9.7-4.5 7.7.4.7 1-.1 16.4-3.5 8.8-1.6 10.5-1.8L157 80l.5 2.3-1.8 4.6-11.3 2.8-13.1 2.6-19.7 4.6-.2.2.3.3 8.8.9 3.8.2h9.2l17.3 1.3 4.5 3 2.7 3.6-.5 2.8-6.9 3.5-9.4-2.2-21.8-5.2-7.5-1.9h-1v.6l6.2 6.1 11.5 10.4 14.3 13.3.7 3.3-1.8 2.6-2-.3-12.6-9.5-4.8-4.2-11-9.3h-.7v1l2.5 3.7 13.4 20 .7 6.3-1 2-3.5 1.2-3.8-.7-7.8-11-8.1-12.4-6.5-11-.8.4-3.9 41.4-1.8 2.1L86 161l-3.5-2.6-1.8-4.3 1.8-8.4 2.2-11 1.8-8.7 1.6-10.9 1-3.6v-.3l-.8.2-8.2 11.2-12.5 16.8-9.8 10.5-2.4 1-4-2.1.3-3.8 2.3-3.4 13.6-17.3 8.2-10.8 5.4-6.2v-.9h-.4L44.6 130l-6.5.9-2.7-2.6.3-4.3 1.3-1.4 11-7.6v.1Z"/>
          </mask>
          <path fill="#000" d="m47.9 115.1 27-15.1.4-1.3-.5-.8h-1.3l-4.5-.2-15.4-.4-13.3-.6-13-.7-3.2-.7-3.1-4 .3-2 2.8-1.9 3.9.4 8.6.6 13 .9 9.5.5 14 1.5h2.2l.3-1-.8-.5-.6-.5-13.4-9.1-14.6-9.7-7.6-5.5-4.1-2.8-2.1-2.7-1-5.7 3.8-4.1 5 .3 1.3.3 5.1 4 11 8.4L71.7 73l2 1.8.9-.6v-.4l-.9-1.6-7.7-14L57.7 44l-3.6-5.9-1-3.5c-.3-1.4-.6-2.7-.6-4.2l4.3-5.7 2.3-.8 5.7.8 2.4 2L71 35l5.7 12.7L85.5 65l2.6 5.2 1.3 4.7.6 1.5h.9v-.9l.7-9.7 1.3-12 1.4-15.4.4-4.3 2.2-5.2L101 26l3.4 1.6 2.7 4-.4 2.4-1.6 10.6-3.2 16.6-2 11h1.1l1.4-1.3 5.6-7.5 9.5-11.7 4.1-4.7 4.9-5.2 3.1-2.5h5.9l4.3 6.5-2 6.6-6 7.7-5 6.6-7.2 9.7-4.5 7.7.4.7 1-.1 16.4-3.5 8.8-1.6 10.5-1.8L157 80l.5 2.3-1.8 4.6-11.3 2.8-13.1 2.6-19.7 4.6-.2.2.3.3 8.8.9 3.8.2h9.2l17.3 1.3 4.5 3 2.7 3.6-.5 2.8-6.9 3.5-9.4-2.2-21.8-5.2-7.5-1.9h-1v.6l6.2 6.1 11.5 10.4 14.3 13.3.7 3.3-1.8 2.6-2-.3-12.6-9.5-4.8-4.2-11-9.3h-.7v1l2.5 3.7 13.4 20 .7 6.3-1 2-3.5 1.2-3.8-.7-7.8-11-8.1-12.4-6.5-11-.8.4-3.9 41.4-1.8 2.1L86 161l-3.5-2.6-1.8-4.3 1.8-8.4 2.2-11 1.8-8.7 1.6-10.9 1-3.6v-.3l-.8.2-8.2 11.2-12.5 16.8-9.8 10.5-2.4 1-4-2.1.3-3.8 2.3-3.4 13.6-17.3 8.2-10.8 5.4-6.2v-.9h-.4L44.6 130l-6.5.9-2.7-2.6.3-4.3 1.3-1.4 11-7.6v.1Z"/>
          <path stroke="#fff" stroke-width="2" d="m47.9 115.1 27-15.1.4-1.3-.5-.8h-1.3l-4.5-.2-15.4-.4-13.3-.6-13-.7-3.2-.7-3.1-4 .3-2 2.8-1.9 3.9.4 8.6.6 13 .9 9.5.5 14 1.5h2.2l.3-1-.8-.5-.6-.5-13.4-9.1-14.6-9.7-7.6-5.5-4.1-2.8-2.1-2.7-1-5.7 3.8-4.1 5 .3 1.3.3 5.1 4 11 8.4L71.7 73l2 1.8.9-.6v-.4l-.9-1.6-7.7-14L57.7 44l-3.6-5.9-1-3.5c-.3-1.4-.6-2.7-.6-4.2l4.3-5.7 2.3-.8 5.7.8 2.4 2L71 35l5.7 12.7L85.5 65l2.6 5.2 1.3 4.7.6 1.5h.9v-.9l.7-9.7 1.3-12 1.4-15.4.4-4.3 2.2-5.2L101 26l3.4 1.6 2.7 4-.4 2.4-1.6 10.6-3.2 16.6-2 11h1.1l1.4-1.3 5.6-7.5 9.5-11.7 4.1-4.7 4.9-5.2 3.1-2.5h5.9l4.3 6.5-2 6.6-6 7.7-5 6.6-7.2 9.7-4.5 7.7.4.7 1-.1 16.4-3.5 8.8-1.6 10.5-1.8L157 80l.5 2.3-1.8 4.6-11.3 2.8-13.1 2.6-19.7 4.6-.2.2.3.3 8.8.9 3.8.2h9.2l17.3 1.3 4.5 3 2.7 3.6-.5 2.8-6.9 3.5-9.4-2.2-21.8-5.2-7.5-1.9h-1v.6l6.2 6.1 11.5 10.4 14.3 13.3.7 3.3-1.8 2.6-2-.3-12.6-9.5-4.8-4.2-11-9.3h-.7v1l2.5 3.7 13.4 20 .7 6.3-1 2-3.5 1.2-3.8-.7-7.8-11-8.1-12.4-6.5-11-.8.4-3.9 41.4-1.8 2.1L86 161l-3.5-2.6-1.8-4.3 1.8-8.4 2.2-11 1.8-8.7 1.6-10.9 1-3.6v-.3l-.8.2-8.2 11.2-12.5 16.8-9.8 10.5-2.4 1-4-2.1.3-3.8 2.3-3.4 13.6-17.3 8.2-10.8 5.4-6.2v-.9h-.4L44.6 130l-6.5.9-2.7-2.6.3-4.3 1.3-1.4 11-7.6v.1Z" mask="url(#d)"/>
        </g>
        <mask id="e" width="92" height="92" x="89" y="-1" maskUnits="userSpaceOnUse" style="mask-type:alpha">
          <path fill="#D9D9D9" stroke="#000" d="M90 0h90v90H90z"/>
        </mask>
        <g mask="url(#e)">
          <path fill="#000" fill-rule="evenodd" d="M30.2-18h119.6c27 0 49.2 22.3 49.2 49.5v119a49.5 49.5 0 0 1-49.2 49.5H30.2c-27 0-49.2-22.3-49.2-49.5v-119A49.5 49.5 0 0 1 30.2-18Z" clip-rule="evenodd"/>
          <path fill="#000" fill-rule="evenodd" d="M30.2-18h119.6c27 0 49.2 22.3 49.2 49.5v119a49.5 49.5 0 0 1-49.2 49.5H30.2c-27 0-49.2-22.3-49.2-49.5v-119A49.5 49.5 0 0 1 30.2-18Z" clip-rule="evenodd"/>
          <path stroke="#fff" d="M30.2-18h119.6c27 0 49.2 22.3 49.2 49.5v119a49.5 49.5 0 0 1-49.2 49.5H30.2c-27 0-49.2-22.3-49.2-49.5v-119A49.5 49.5 0 0 1 30.2-18Z" clip-rule="evenodd"/>
          <path fill="#000" stroke="#fff" d="M152 78.9a34.7 34.7 0 0 0-3-28.5 35 35 0 0 0-37.7-16.8A34.6 34.6 0 0 0 85.4 22h-.2a35 35 0 0 0-33.3 24.2A35 35 0 0 0 33 104.1a34.7 34.7 0 0 0 2.9 28.5 35 35 0 0 0 37.7 16.8 34.6 34.6 0 0 0 26 11.6h.2a35 35 0 0 0 33.4-24.3A35 35 0 0 0 152 79Zm-52.2 73c-6.1 0-12-2.1-16.7-6l.8-.5 27.7-16a4.5 4.5 0 0 0 2.3-3.9v-39l11.6 6.7c.2 0 .3.2.3.4v32.3a26 26 0 0 1-26 26Zm-56-23.9a26 26 0 0 1-3-17.4l.8.4 27.6 16a4.5 4.5 0 0 0 4.6 0l33.7-19.5V121a.4.4 0 0 1-.1.4l-28 16.1A26 26 0 0 1 44 128Zm-7.2-60.4a26 26 0 0 1 13.5-11.4V89a4.5 4.5 0 0 0 2.3 4l33.8 19.4-11.7 6.8a.4.4 0 0 1-.4 0l-28-16.1a26 26 0 0 1-9.5-35.6Zm96 22.4L99 70.4l11.6-6.7a.4.4 0 0 1 .4 0l28 16.1a26 26 0 0 1-4 47v-33c0-1.6-.9-3-2.3-3.8Zm11.6-17.6c-.2 0-.5-.3-.8-.5l-27.6-16a4.5 4.5 0 0 0-4.6 0L77.5 75.6V62a.4.4 0 0 1 .1-.4l28-16.1a26 26 0 0 1 38.6 27Zm-73 24.1-11.8-6.7a.4.4 0 0 1-.2-.4V57.1a26 26 0 0 1 42.7-20l-.8.5-27.7 16a4.5 4.5 0 0 0-2.3 3.9v39Zm6.3-13.7 15-8.7 15 8.7v17.4l-15 8.7-15-8.7V82.8Z"/>
        </g>
        <mask id="f" width="92" height="92" x="-1" y="-1" maskUnits="userSpaceOnUse" style="mask-type:alpha">
          <path fill="#D9D9D9" stroke="#000" d="M0 0h90v90H0z"/>
        </mask>
        <g mask="url(#f)">
          <path fill="#fff" fill-rule="evenodd" stroke="#000" d="M45.2 0h109.6A45.4 45.4 0 0 1 200 45.4v109.2c0 25-20.3 45.4-45.2 45.4H45.2A45.4 45.4 0 0 1 0 154.6V45.4C0 20.4 20.3 0 45.2 0Z" clip-rule="evenodd"/>
          <path fill="#22B8CD" d="M-27-4h222v189H-27z"/>
          <path fill="#000" d="M-27-4h222v189H-27z"/>
          <path stroke="#fff" d="M-27-4h222v189H-27z"/>
          <path fill="#000" stroke="#fff" d="M132 62.3h15.5v60.5h-16.8v37.3l-.8-.7-39.4-35v34.8h-7.2v-34.7l-39.4 34.9-.9.7v-37.8H26.5V61.8H43v-42l.8.8 39.5 36.6V21.6h7.2v36.7l40.6-37.7.9-.7v42.4Zm-81.7 41.5v40.3l33-29.2V73.7l-33 30.1Zm40.2 11 33 29.3v-39.8L90.5 74v41Zm-56.8.3H43v-14.5l.2-.1L77.6 69H33.7v46.1Zm63.6-53.3h27.5V36.4L97.3 61.8Zm-47 0h27.4L50.2 36.4v25.4Zm80.4 53.8h9.6v-46H96.6l34 30.9.1.1v15Z"/>
        </g>
        <mask id="g" width="92" height="92" x="-2" y="90" maskUnits="userSpaceOnUse" style="mask-type:alpha">
          <path fill="#D9D9D9" stroke="#000" d="M-1 91h90v90H-1z"/>
        </mask>
        <g mask="url(#g)">
          <path fill="#fff" fill-rule="evenodd" stroke="#000" d="M45.2 0h109.6A45.4 45.4 0 0 1 200 45.4v109.2c0 25-20.3 45.4-45.2 45.4H45.2A45.4 45.4 0 0 1 0 154.6V45.4C0 20.4 20.3 0 45.2 0Z" clip-rule="evenodd"/>
          <path fill="#1C1C1B" stroke="#000" d="M70.4 99H42.8V71.5h27.6v27.7ZM98 126.7H70.4V99h27.7v27.6Z"/>
          <path fill="#1C1C1B" stroke="#000" d="M98 99H70.5V71.5h27.7v27.7Z"/>
          <path fill="#1C1C1B" stroke="#000" d="M125.7 99H98.1V71.5h27.6v27.7ZM70.4 71.5H42.8V43.8h27.7v27.6Zm55.3 0H98.1V43.8h27.6v27.6ZM42.8 99.1H15.2V71h27.6v28Z"/>
          <path fill="#1C1C1B" stroke="#000" d="M42.8 44.3H15.2V16.2h27.6v28Zm110.6-.5h-27.7V16.2h27.7v27.6ZM42.8 127.1H15.2V98.6h27.6v28.5Z"/>
          <path fill="#1C1C1B" stroke="#000" d="M42.8 154.3H15v-27.6h27.7v27.6Zm110.5-55.2h-27.6V71.4h27.6v27.7Zm0-27.7h-27.6V43.8h27.7v27.6Z"/>
          <path fill="#FF7000" stroke="#000" d="M82 99H53.7V71.5H82v27.7Z"/>
          <path fill="#FF4900" stroke="#000" d="M109.5 126.7H82V98.6h27.7v28Z"/>
          <path fill="#FF7000" stroke="#000" d="M110 99H81.5V71.5H110v27.7Zm-55.7.5H26.7v-28h27.6v28Z"/>
          <path fill="#FF4900" stroke="#000" d="M54.3 127.3H26.6V99h27.7v28.2Z"/>
          <path fill="#FF0107" stroke="#000" d="M54.3 154.3H26.6v-27.6h27.7v27.6Z"/>
          <path fill="#000" fill-rule="evenodd" stroke="#000" d="M40.9 0H140a41 41 0 0 1 41 40.8v98.4a41 41 0 0 1-40.9 40.8H41a41 41 0 0 1-41-40.8V40.8A41 41 0 0 1 40.9 0Z" clip-rule="evenodd"/>
          <path fill="#000" fill-rule="evenodd" stroke="#fff" d="m75.4 108 63.3-63.5 18.2-18.2-1 1.4c-13.8 19-20.6 28.4-15.2 51.9a49.6 49.6 0 0 1-77.2 51.8l15-7A36.3 36.3 0 0 0 125.9 77c-1-2.5-4.2-3.1-6.3-1.5L75.4 108Zm-9.1 8L24 153.7c2.6-3.7 6-7.2 9.3-10.6 9.3-9.9 18.6-19.6 13-33.3a49.7 49.7 0 0 1 75-59.3l-15 6.8c-14-5.8-30-1.8-39.7 8-13.2 13-15.9 36-.4 50.7Z" clip-rule="evenodd"/>
        </g>
      </g>
      <path stroke="#fff" d="M59.8.5h60.4c12.3 0 22.2.7 30 2.4a35.2 35.2 0 0 1 18 8.9 35.2 35.2 0 0 1 8.9 18c1.7 7.8 2.4 17.7 2.4 30v60.4c0 12.3-.7 22.2-2.4 30a35.2 35.2 0 0 1-8.9 18 35.2 35.2 0 0 1-18 8.9c-7.8 1.7-17.7 2.4-30 2.4H59.8c-12.3 0-22.2-.7-30-2.4a35.2 35.2 0 0 1-18-8.9 35.2 35.2 0 0 1-8.9-18c-1.7-7.8-2.4-17.7-2.4-30V59.8c0-12.3.7-22.2 2.4-30a35.2 35.2 0 0 1 8.9-18 35.2 35.2 0 0 1 18-8.9C37.6 1.2 47.5.5 59.8.5Z"/>
      <path stroke="#fff" stroke-width=".5" d="M89.3 0v180M0 90.8h180"/>
    </g>
    <mask id="h" width="98" height="133" x="40" y="24" fill="#000" maskUnits="userSpaceOnUse">
      <path fill="#fff" d="M40 24h98v133H40z"/>
      <path d="M77.4 110.5a22 22 0 0 1-1-6.3c0-5 1.6-9.3 4.8-13a46 46 0 0 1 14.6-10.6l.8-.4c3.3-1.8 5.9-3.4 7.7-4.7 1.8-1.5 3-3 3.7-4.4.8-1.6 1.2-3.5 1.2-5.6 0-3.9-1.7-7-5-9A21.7 21.7 0 0 0 91.4 53c-4.6 0-8.8 1-12.7 3a32.1 32.1 0 0 0-10.2 8c-3 3.3-5.5 7.5-7.7 12.3l-17.8-5 11-44.7h22l1 1.2-4.8 10.4 2.3-1.4 2.8-1.4A34.2 34.2 0 0 1 88.7 32a49 49 0 0 1 27.7 3.4A32 32 0 0 1 130.6 47a29 29 0 0 1 5.3 17.4A26.3 26.3 0 0 1 125.4 86c-3.7 2.9-8.6 6-15 9.1l-.7.2a54 54 0 0 0-7 4.2 10 10 0 0 0-3.2 4.3 19 19 0 0 0-1 6.6h-21ZM89 154.7a16 16 0 0 1-11.6-4.6 16 16 0 0 1-4.6-11.5c0-4.7 1.6-8.5 4.8-11.6 3.2-3 7-4.6 11.4-4.6a15.7 15.7 0 0 1 16.1 16.2A15.7 15.7 0 0 1 89 154.7Z"/>
    </mask>
    <path fill="#fff" d="M77.4 110.5a22 22 0 0 1-1-6.3c0-5 1.6-9.3 4.8-13a46 46 0 0 1 14.6-10.6l.8-.4c3.3-1.8 5.9-3.4 7.7-4.7 1.8-1.5 3-3 3.7-4.4.8-1.6 1.2-3.5 1.2-5.6 0-3.9-1.7-7-5-9A21.7 21.7 0 0 0 91.4 53c-4.6 0-8.8 1-12.7 3a32.1 32.1 0 0 0-10.2 8c-3 3.3-5.5 7.5-7.7 12.3l-17.8-5 11-44.7h22l1 1.2-4.8 10.4 2.3-1.4 2.8-1.4A34.2 34.2 0 0 1 88.7 32a49 49 0 0 1 27.7 3.4A32 32 0 0 1 130.6 47a29 29 0 0 1 5.3 17.4A26.3 26.3 0 0 1 125.4 86c-3.7 2.9-8.6 6-15 9.1l-.7.2a54 54 0 0 0-7 4.2 10 10 0 0 0-3.2 4.3 19 19 0 0 0-1 6.6h-21ZM89 154.7a16 16 0 0 1-11.6-4.6 16 16 0 0 1-4.6-11.5c0-4.7 1.6-8.5 4.8-11.6 3.2-3 7-4.6 11.4-4.6a15.7 15.7 0 0 1 16.1 16.2A15.7 15.7 0 0 1 89 154.7Z"/>
    <path fill="#000" d="m77.4 110.5-1.9.6.4 1.4h1.5v-2Zm3.8-19.4-1.5-1.3 1.5 1.3Zm14.6-10.5-.7-1.9h-.2l.9 1.9Zm.8-.4.8 1.9h.1l.1-.1-1-1.8Zm7.7-4.7 1.2 1.6-1.2-1.6ZM108 71l-1.8-1v.1l1.8.9Zm-3.9-14.7L103 58l1.1-1.7ZM78.8 56l.9 1.8-.9-1.8Zm-10.2 8-1.5-1.3 1.5 1.3Zm-7.7 12.4-.5 2 1.7.4.7-1.6-1.9-.8Zm-17.8-5-2-.5-.4 1.8 1.8.6.6-2ZM54 26.6v-2h-1.6l-.4 1.5 2 .5Zm22 0 1.7-1.2-.6-.8h-1v2Zm1 1.2 1.7.8.5-1-.6-1-1.7 1.2Zm-4.8 10.4-1.9-.9-2.5 5.7 5.4-3.1-1-1.8Zm2.3-1.4 1 1.7h.1l-1-1.7Zm2.8-1.4.7 1.9h.2l-1-1.9Zm5-2-.5-2 .6 2Zm6.4-1.4.3 2-.3-2Zm27.7 3.4-.9 1.9.9-1.9ZM130.6 47l-1.6 1 1.6-1Zm2.8 29.4-1.8-.8 1.8.8Zm-8 9.7-1.3-1.6 1.3 1.6Zm-15 9.2.5 2 .2-.1.2-.1-.9-1.8Zm-.7.2-.4-2h-.3l-.2.2 1 1.8Zm-7 4.2 1.3 1.6-1.2-1.6Zm-3.2 4.3 1.9.8-1.9-.8Zm-1 6.6v2h2v-2h-2Zm-21 39.6-1.5 1.4 1.4-1.4Zm.1-23.1-1.4-1.5 1.4 1.5Zm23 0 1.4-1.4-1.4 1.4Zm0 23.1 1.4 1.4-1.4-1.4Zm-23.2-39.6 2-.6c-.7-2.1-1-4-1-5.7h-4c0 2.2.4 4.5 1.1 6.9l2-.6Zm-1-6.3h2c0-4.5 1.4-8.4 4.3-11.8l-1.5-1.3-1.5-1.3c-3.5 4.1-5.3 9-5.3 14.4h2Zm4.8-13 1.5 1.2a44 44 0 0 1 14-10l-.9-1.8-.9-1.8a47 47 0 0 0-15.2 11l1.5 1.3Zm14.6-10.6.7 1.8.9-.3-.8-1.9-.7-1.8-.8.3.7 1.9Zm.8-.4 1 1.8c3.3-1.8 6-3.5 7.9-5l-1.2-1.5-1.2-1.6a66 66 0 0 1-7.4 4.6l1 1.7Zm7.7-4.7 1.3 1.5a15 15 0 0 0 4.3-5.1l-1.9-.8-1.8-.9A11 11 0 0 1 103 74l1.3 1.6ZM108 71l1.8.9c1-2 1.4-4.2 1.4-6.5h-4c0 1.9-.3 3.4-1 4.7l1.8.9Zm1.2-5.6h2c0-4.6-2-8.2-6-10.7l-1 1.6-1.1 1.7a8.1 8.1 0 0 1 4.1 7.4h2Zm-5-9 1-1.7A23.7 23.7 0 0 0 91.6 51v4c4.9 0 8.6 1.1 11.5 3l1.1-1.6ZM91.4 53v-2c-4.9 0-9.4 1-13.6 3.1l.9 1.8.9 1.8C83.2 56 87.2 55 91.5 55v-2Zm-12.7 3-.9-1.9c-4 2-7.6 4.8-10.8 8.5l1.5 1.3 1.5 1.3c3-3.3 6.1-5.8 9.6-7.5l-.9-1.8Zm-10.2 8L67 62.6a51 51 0 0 0-8 13l1.8.7 1.9.8c2-4.7 4.5-8.6 7.3-11.9L68.6 64Zm-7.7 12.3.6-1.9-17.9-5-.5 1.8-.6 2 17.9 5 .5-1.9Zm-17.8-5 2 .4 10.8-44.5-2-.5-1.9-.5-10.8 44.6 1.9.4Zm11-44.7v2h22v-4H54v2Zm22 0-1.6 1.2.9 1.1 1.6-1.1 1.7-1.2-.9-1.2-1.6 1.2Zm1 1.2-2-.8-4.8 10.4 1.9.9 1.8.8 4.7-10.4L77 28Zm-4.8 10.4 1 1.7a1803 1803 0 0 1 1.1-.7l.3-.2.3-.1.3-.2.3-.2-1-1.7-1-1.7-.5.3-.6.3-.3.2-.3.2-.3.1-.3.2 1 1.8Zm2.3-1.4 1.1 1.7c.8-.5 1.6-1 2.4-1.2l-.7-1.9-.7-1.8c-1 .3-2.1.9-3.1 1.5l1 1.7Zm2.8-1.4.9 1.8c1.4-.7 3-1.4 4.8-1.9l-.6-2-.6-1.8a38 38 0 0 0-5.4 2.1l.9 1.8Zm5-2 .6 2a45 45 0 0 1 6-1.4l-.2-2-.3-2a49 49 0 0 0-6.6 1.5l.6 1.9Zm6.4-1.4.3 2a37 37 0 0 1 7-.6v-4a41 41 0 0 0-7.7.7l.4 2Zm7.3-.7v2a47 47 0 0 1 19.5 4l.9-1.9.8-1.8A51 51 0 0 0 96 29.4v2Zm20.4 4.1-.8 1.9A30 30 0 0 1 129 48l1.6-1 1.7-1.2a34 34 0 0 0-15.1-12.1l-.8 1.8ZM130.6 47l-1.6 1.2c3.3 4.6 5 10 5 16.2h4c0-7-2-13.2-5.7-18.5l-1.7 1.1Zm5.3 17.4h-2c0 4.2-.8 8-2.3 11.2l1.8.8 1.8.9c1.8-3.8 2.7-8.2 2.7-13h-2Zm-2.5 12-1.9-.8a24.3 24.3 0 0 1-7.4 9l1.3 1.5 1.2 1.6c4-3.1 6.8-6.6 8.6-10.4l-1.8-.9Zm-8 9.7-1.3-1.5a81 81 0 0 1-14.6 9l1 1.7.8 1.8a84.8 84.8 0 0 0 15.3-9.4l-1.2-1.6Zm-15 9.2-.5-2-.6.2.4 2 .5 2 .7-.3-.5-1.9Zm-.7.2-1-1.8a55.8 55.8 0 0 0-7.2 4.4l1.3 1.6 1.2 1.6c1.3-1 3.5-2.4 6.7-4l-1-1.8Zm-7 4.2-1.2-1.6a12 12 0 0 0-3.8 5.1l1.8.8 1.9.7a8 8 0 0 1 2.6-3.4l-1.2-1.6Zm-3.2 4.3-1.8-.8c-.8 2-1.2 4.4-1.2 7.4h4c0-2.7.3-4.6.9-5.8l-1.9-.8Zm-1 6.6v-2h-21v4h21v-2ZM89 154.7v-2a14 14 0 0 1-10.2-4l-1.4 1.4-1.4 1.5a18 18 0 0 0 13 5.1v-2Zm-11.6-4.6 1.5-1.4a14 14 0 0 1-4-10.1h-4c0 5 1.7 9.3 5.1 12.9l1.4-1.4Zm-4.6-11.5h2c0-4.2 1.4-7.5 4.2-10.2l-1.4-1.4-1.4-1.5a17.4 17.4 0 0 0-5.4 13h2Zm4.8-11.6 1.4 1.4c2.8-2.7 6-4 10-4v-4c-5 0-9.2 1.7-12.8 5.1l1.4 1.5Zm11.4-4.6v2c4.2 0 7.5 1.3 10.1 4l1.5-1.4 1.4-1.4a17.7 17.7 0 0 0-13-5.2v2Zm11.6 4.6-1.5 1.4c2.7 2.7 4 6 4 10.2h4c0-5.2-1.7-9.6-5.1-13l-1.4 1.4Zm4.5 11.6h-2c0 4-1.3 7.3-4 10.1l1.5 1.4 1.4 1.4a18 18 0 0 0 5.1-13h-2Zm-4.5 11.5-1.5-1.4c-2.6 2.7-6 4-10.1 4v4c5.1 0 9.5-1.7 13-5.2l-1.4-1.4Z" mask="url(#h)"/>
    <mask id="o" width="180" height="180" x="0" y="0" maskUnits="userSpaceOnUse" style="mask-type:luminance">
      <mask id="i" width="180" height="180" x="0" y="0" maskUnits="userSpaceOnUse" style="mask-type:alpha">
        <path fill="#C4C4C4" stroke="#000" d="M59.8.5h60.4c12.3 0 22.2.7 30 2.4a35.2 35.2 0 0 1 18 8.9 35.2 35.2 0 0 1 8.9 18c1.7 7.8 2.4 17.7 2.4 30v60.4c0 12.3-.7 22.2-2.4 30a35.2 35.2 0 0 1-8.9 18 35.2 35.2 0 0 1-18 8.9c-7.8 1.7-17.7 2.4-30 2.4H59.8c-12.3 0-22.2-.7-30-2.4a35.2 35.2 0 0 1-18-8.9 35.2 35.2 0 0 1-8.9-18c-1.7-7.8-2.4-17.7-2.4-30V59.8c0-12.3.7-22.2 2.4-30a35.2 35.2 0 0 1 8.9-18 35.2 35.2 0 0 1 18-8.9C37.6 1.2 47.5.5 59.8.5Z"/>
      </mask>
      <g mask="url(#i)">
        <mask id="j" width="92" height="92" x="89" y="89" maskUnits="userSpaceOnUse" style="mask-type:alpha">
          <path fill="#D9D9D9" stroke="#000" d="M90 90h90v90H90z"/>
        </mask>
        <g mask="url(#j)">
          <path fill="#D77655" fill-rule="evenodd" d="M15.4-46h149.2A61.7 61.7 0 0 1 226 15.7v148.6c0 34-27.6 61.7-61.4 61.7H15.4A61.7 61.7 0 0 1-46 164.3V15.7c0-34 27.6-61.7 61.4-61.7Z" clip-rule="evenodd"/>
          <path fill="#000" fill-rule="evenodd" d="M15.4-46h149.2A61.7 61.7 0 0 1 226 15.7v148.6c0 34-27.6 61.7-61.4 61.7H15.4A61.7 61.7 0 0 1-46 164.3V15.7c0-34 27.6-61.7 61.4-61.7Z" clip-rule="evenodd"/>
          <path fill-rule="evenodd" stroke="#000" d="M15.4-46h149.2A61.7 61.7 0 0 1 226 15.7v148.6c0 34-27.6 61.7-61.4 61.7H15.4A61.7 61.7 0 0 1-46 164.3V15.7c0-34 27.6-61.7 61.4-61.7Z" clip-rule="evenodd"/>
          <mask id="k" width="141" height="141" x="19" y="22" fill="#000" maskUnits="userSpaceOnUse">
            <path fill="#fff" d="M19 22h141v141H19z"/>
            <path d="m47.9 115.1 27-15.1.4-1.3-.5-.8h-1.3l-4.5-.2-15.4-.4-13.3-.6-13-.7-3.2-.7-3.1-4 .3-2 2.8-1.9 3.9.4 8.6.6 13 .9 9.5.5 14 1.5h2.2l.3-1-.8-.5-.6-.5-13.4-9.1-14.6-9.7-7.6-5.5-4.1-2.8-2.1-2.7-1-5.7 3.8-4.1 5 .3 1.3.3 5.1 4 11 8.4L71.7 73l2 1.8.9-.6v-.4l-.9-1.6-7.7-14L57.7 44l-3.6-5.9-1-3.5c-.3-1.4-.6-2.7-.6-4.2l4.3-5.7 2.3-.8 5.7.8 2.4 2L71 35l5.7 12.7L85.5 65l2.6 5.2 1.3 4.7.6 1.5h.9v-.9l.7-9.7 1.3-12 1.4-15.4.4-4.3 2.2-5.2L101 26l3.4 1.6 2.7 4-.4 2.4-1.6 10.6-3.2 16.6-2 11h1.1l1.4-1.3 5.6-7.5 9.5-11.7 4.1-4.7 4.9-5.2 3.1-2.5h5.9l4.3 6.5-2 6.6-6 7.7-5 6.6-7.2 9.7-4.5 7.7.4.7 1-.1 16.4-3.5 8.8-1.6 10.5-1.8L157 80l.5 2.3-1.8 4.6-11.3 2.8-13.1 2.6-19.7 4.6-.2.2.3.3 8.8.9 3.8.2h9.2l17.3 1.3 4.5 3 2.7 3.6-.5 2.8-6.9 3.5-9.4-2.2-21.8-5.2-7.5-1.9h-1v.6l6.2 6.1 11.5 10.4 14.3 13.3.7 3.3-1.8 2.6-2-.3-12.6-9.5-4.8-4.2-11-9.3h-.7v1l2.5 3.7 13.4 20 .7 6.3-1 2-3.5 1.2-3.8-.7-7.8-11-8.1-12.4-6.5-11-.8.4-3.9 41.4-1.8 2.1L86 161l-3.5-2.6-1.8-4.3 1.8-8.4 2.2-11 1.8-8.7 1.6-10.9 1-3.6v-.3l-.8.2-8.2 11.2-12.5 16.8-9.8 10.5-2.4 1-4-2.1.3-3.8 2.3-3.4 13.6-17.3 8.2-10.8 5.4-6.2v-.9h-.4L44.6 130l-6.5.9-2.7-2.6.3-4.3 1.3-1.4 11-7.6v.1Z"/>
          </mask>
          <path fill="#000" d="m47.9 115.1 27-15.1.4-1.3-.5-.8h-1.3l-4.5-.2-15.4-.4-13.3-.6-13-.7-3.2-.7-3.1-4 .3-2 2.8-1.9 3.9.4 8.6.6 13 .9 9.5.5 14 1.5h2.2l.3-1-.8-.5-.6-.5-13.4-9.1-14.6-9.7-7.6-5.5-4.1-2.8-2.1-2.7-1-5.7 3.8-4.1 5 .3 1.3.3 5.1 4 11 8.4L71.7 73l2 1.8.9-.6v-.4l-.9-1.6-7.7-14L57.7 44l-3.6-5.9-1-3.5c-.3-1.4-.6-2.7-.6-4.2l4.3-5.7 2.3-.8 5.7.8 2.4 2L71 35l5.7 12.7L85.5 65l2.6 5.2 1.3 4.7.6 1.5h.9v-.9l.7-9.7 1.3-12 1.4-15.4.4-4.3 2.2-5.2L101 26l3.4 1.6 2.7 4-.4 2.4-1.6 10.6-3.2 16.6-2 11h1.1l1.4-1.3 5.6-7.5 9.5-11.7 4.1-4.7 4.9-5.2 3.1-2.5h5.9l4.3 6.5-2 6.6-6 7.7-5 6.6-7.2 9.7-4.5 7.7.4.7 1-.1 16.4-3.5 8.8-1.6 10.5-1.8L157 80l.5 2.3-1.8 4.6-11.3 2.8-13.1 2.6-19.7 4.6-.2.2.3.3 8.8.9 3.8.2h9.2l17.3 1.3 4.5 3 2.7 3.6-.5 2.8-6.9 3.5-9.4-2.2-21.8-5.2-7.5-1.9h-1v.6l6.2 6.1 11.5 10.4 14.3 13.3.7 3.3-1.8 2.6-2-.3-12.6-9.5-4.8-4.2-11-9.3h-.7v1l2.5 3.7 13.4 20 .7 6.3-1 2-3.5 1.2-3.8-.7-7.8-11-8.1-12.4-6.5-11-.8.4-3.9 41.4-1.8 2.1L86 161l-3.5-2.6-1.8-4.3 1.8-8.4 2.2-11 1.8-8.7 1.6-10.9 1-3.6v-.3l-.8.2-8.2 11.2-12.5 16.8-9.8 10.5-2.4 1-4-2.1.3-3.8 2.3-3.4 13.6-17.3 8.2-10.8 5.4-6.2v-.9h-.4L44.6 130l-6.5.9-2.7-2.6.3-4.3 1.3-1.4 11-7.6v.1Z"/>
          <path stroke="#fff" stroke-width="2" d="m47.9 115.1 27-15.1.4-1.3-.5-.8h-1.3l-4.5-.2-15.4-.4-13.3-.6-13-.7-3.2-.7-3.1-4 .3-2 2.8-1.9 3.9.4 8.6.6 13 .9 9.5.5 14 1.5h2.2l.3-1-.8-.5-.6-.5-13.4-9.1-14.6-9.7-7.6-5.5-4.1-2.8-2.1-2.7-1-5.7 3.8-4.1 5 .3 1.3.3 5.1 4 11 8.4L71.7 73l2 1.8.9-.6v-.4l-.9-1.6-7.7-14L57.7 44l-3.6-5.9-1-3.5c-.3-1.4-.6-2.7-.6-4.2l4.3-5.7 2.3-.8 5.7.8 2.4 2L71 35l5.7 12.7L85.5 65l2.6 5.2 1.3 4.7.6 1.5h.9v-.9l.7-9.7 1.3-12 1.4-15.4.4-4.3 2.2-5.2L101 26l3.4 1.6 2.7 4-.4 2.4-1.6 10.6-3.2 16.6-2 11h1.1l1.4-1.3 5.6-7.5 9.5-11.7 4.1-4.7 4.9-5.2 3.1-2.5h5.9l4.3 6.5-2 6.6-6 7.7-5 6.6-7.2 9.7-4.5 7.7.4.7 1-.1 16.4-3.5 8.8-1.6 10.5-1.8L157 80l.5 2.3-1.8 4.6-11.3 2.8-13.1 2.6-19.7 4.6-.2.2.3.3 8.8.9 3.8.2h9.2l17.3 1.3 4.5 3 2.7 3.6-.5 2.8-6.9 3.5-9.4-2.2-21.8-5.2-7.5-1.9h-1v.6l6.2 6.1 11.5 10.4 14.3 13.3.7 3.3-1.8 2.6-2-.3-12.6-9.5-4.8-4.2-11-9.3h-.7v1l2.5 3.7 13.4 20 .7 6.3-1 2-3.5 1.2-3.8-.7-7.8-11-8.1-12.4-6.5-11-.8.4-3.9 41.4-1.8 2.1L86 161l-3.5-2.6-1.8-4.3 1.8-8.4 2.2-11 1.8-8.7 1.6-10.9 1-3.6v-.3l-.8.2-8.2 11.2-12.5 16.8-9.8 10.5-2.4 1-4-2.1.3-3.8 2.3-3.4 13.6-17.3 8.2-10.8 5.4-6.2v-.9h-.4L44.6 130l-6.5.9-2.7-2.6.3-4.3 1.3-1.4 11-7.6v.1Z" mask="url(#k)"/>
        </g>
        <mask id="l" width="92" height="92" x="89" y="-1" maskUnits="userSpaceOnUse" style="mask-type:alpha">
          <path fill="#D9D9D9" stroke="#000" d="M90 0h90v90H90z"/>
        </mask>
        <g mask="url(#l)">
          <path fill="#000" fill-rule="evenodd" d="M30.2-18h119.6c27 0 49.2 22.3 49.2 49.5v119a49.5 49.5 0 0 1-49.2 49.5H30.2c-27 0-49.2-22.3-49.2-49.5v-119A49.5 49.5 0 0 1 30.2-18Z" clip-rule="evenodd"/>
          <path fill="#000" fill-rule="evenodd" d="M30.2-18h119.6c27 0 49.2 22.3 49.2 49.5v119a49.5 49.5 0 0 1-49.2 49.5H30.2c-27 0-49.2-22.3-49.2-49.5v-119A49.5 49.5 0 0 1 30.2-18Z" clip-rule="evenodd"/>
          <path fill-rule="evenodd" stroke="#fff" d="M30.2-18h119.6c27 0 49.2 22.3 49.2 49.5v119a49.5 49.5 0 0 1-49.2 49.5H30.2c-27 0-49.2-22.3-49.2-49.5v-119A49.5 49.5 0 0 1 30.2-18Z" clip-rule="evenodd"/>
          <path fill="#000" stroke="#fff" d="M152 78.9a34.7 34.7 0 0 0-3-28.5 35 35 0 0 0-37.7-16.8A34.6 34.6 0 0 0 85.4 22h-.2a35 35 0 0 0-33.3 24.2A35 35 0 0 0 33 104.1a34.7 34.7 0 0 0 2.9 28.5 35 35 0 0 0 37.7 16.8 34.6 34.6 0 0 0 26 11.6h.2a35 35 0 0 0 33.4-24.3A35 35 0 0 0 152 79Zm-52.2 73c-6.1 0-12-2.1-16.7-6l.8-.5 27.7-16a4.5 4.5 0 0 0 2.3-3.9v-39l11.6 6.7c.2 0 .3.2.3.4v32.3a26 26 0 0 1-26 26Zm-56-23.9a26 26 0 0 1-3-17.4l.8.4 27.6 16a4.5 4.5 0 0 0 4.6 0l33.7-19.5V121a.4.4 0 0 1-.1.4l-28 16.1A26 26 0 0 1 44 128Zm-7.2-60.4a26 26 0 0 1 13.5-11.4V89a4.5 4.5 0 0 0 2.3 4l33.8 19.4-11.7 6.8a.4.4 0 0 1-.4 0l-28-16.1a26 26 0 0 1-9.5-35.6Zm96 22.4L99 70.4l11.6-6.7a.4.4 0 0 1 .4 0l28 16.1a26 26 0 0 1-4 47v-33c0-1.6-.9-3-2.3-3.8Zm11.6-17.6c-.2 0-.5-.3-.8-.5l-27.6-16a4.5 4.5 0 0 0-4.6 0L77.5 75.6V62a.4.4 0 0 1 .1-.4l28-16.1a26 26 0 0 1 38.6 27Zm-73 24.1-11.8-6.7a.4.4 0 0 1-.2-.4V57.1a26 26 0 0 1 42.7-20l-.8.5-27.7 16a4.5 4.5 0 0 0-2.3 3.9v39Zm6.3-13.7 15-8.7 15 8.7v17.4l-15 8.7-15-8.7V82.8Z"/>
        </g>
        <mask id="m" width="92" height="92" x="-1" y="-1" maskUnits="userSpaceOnUse" style="mask-type:alpha">
          <path fill="#D9D9D9" stroke="#000" d="M0 0h90v90H0z"/>
        </mask>
        <g mask="url(#m)">
          <path fill="#fff" fill-rule="evenodd" stroke="#000" d="M45.2 0h109.6A45.4 45.4 0 0 1 200 45.4v109.2c0 25-20.3 45.4-45.2 45.4H45.2A45.4 45.4 0 0 1 0 154.6V45.4C0 20.4 20.3 0 45.2 0Z" clip-rule="evenodd"/>
          <path fill="#22B8CD" d="M-27-4h222v189H-27z"/>
          <path fill="#000" d="M-27-4h222v189H-27z"/>
          <path stroke="#fff" d="M-27-4h222v189H-27z"/>
          <path fill="#000" stroke="#fff" d="M132 62.3h15.5v60.5h-16.8v37.3l-.8-.7-39.4-35v34.8h-7.2v-34.7l-39.4 34.9-.9.7v-37.8H26.5V61.8H43v-42l.8.8 39.5 36.6V21.6h7.2v36.7l40.6-37.7.9-.7v42.4Zm-81.7 41.5v40.3l33-29.2V73.7l-33 30.1Zm40.2 11 33 29.3v-39.8L90.5 74v41Zm-56.8.3H43v-14.5l.2-.1L77.6 69H33.7v46.1Zm63.6-53.3h27.5V36.4L97.3 61.8Zm-47 0h27.4L50.2 36.4v25.4Zm80.4 53.8h9.6v-46H96.6l34 30.9.1.1v15Z"/>
        </g>
        <mask id="n" width="92" height="92" x="-2" y="90" maskUnits="userSpaceOnUse" style="mask-type:alpha">
          <path fill="#D9D9D9" stroke="#000" d="M-1 91h90v90H-1z"/>
        </mask>
        <g mask="url(#n)">
          <path fill="#fff" fill-rule="evenodd" stroke="#000" d="M45.2 0h109.6A45.4 45.4 0 0 1 200 45.4v109.2c0 25-20.3 45.4-45.2 45.4H45.2A45.4 45.4 0 0 1 0 154.6V45.4C0 20.4 20.3 0 45.2 0Z" clip-rule="evenodd"/>
          <path fill="#1C1C1B" stroke="#000" d="M70.4 99H42.8V71.5h27.6v27.7ZM98 126.7H70.4V99h27.7v27.6Z"/>
          <path fill="#1C1C1B" stroke="#000" d="M98 99H70.5V71.5h27.7v27.7Z"/>
          <path fill="#1C1C1B" stroke="#000" d="M125.7 99H98.1V71.5h27.6v27.7ZM70.4 71.5H42.8V43.8h27.7v27.6Zm55.3 0H98.1V43.8h27.6v27.6ZM42.8 99.1H15.2V71h27.6v28Z"/>
          <path fill="#1C1C1B" stroke="#000" d="M42.8 44.3H15.2V16.2h27.6v28Zm110.6-.5h-27.7V16.2h27.7v27.6ZM42.8 127.1H15.2V98.6h27.6v28.5Z"/>
          <path fill="#1C1C1B" stroke="#000" d="M42.8 154.3H15v-27.6h27.7v27.6Zm110.5-55.2h-27.6V71.4h27.6v27.7Zm0-27.7h-27.6V43.8h27.7v27.6Z"/>
          <path fill="#FF7000" stroke="#000" d="M82 99H53.7V71.5H82v27.7Z"/>
          <path fill="#FF4900" stroke="#000" d="M109.5 126.7H82V98.6h27.7v28Z"/>
          <path fill="#FF7000" stroke="#000" d="M110 99H81.5V71.5H110v27.7Zm-55.7.5H26.7v-28h27.6v28Z"/>
          <path fill="#FF4900" stroke="#000" d="M54.3 127.3H26.6V99h27.7v28.2Z"/>
          <path fill="#FF0107" stroke="#000" d="M54.3 154.3H26.6v-27.6h27.7v27.6Z"/>
          <path fill="#000" fill-rule="evenodd" stroke="#000" d="M40.9 0H140a41 41 0 0 1 41 40.8v98.4a41 41 0 0 1-40.9 40.8H41a41 41 0 0 1-41-40.8V40.8A41 41 0 0 1 40.9 0Z" clip-rule="evenodd"/>
          <path fill="#000" fill-rule="evenodd" stroke="#fff" d="m75.4 108 63.3-63.5 18.2-18.2-1 1.4c-13.8 19-20.6 28.4-15.2 51.9a49.6 49.6 0 0 1-77.2 51.8l15-7A36.3 36.3 0 0 0 125.9 77c-1-2.5-4.2-3.1-6.3-1.5L75.4 108Zm-9.1 8L24 153.7c2.6-3.7 6-7.2 9.3-10.6 9.3-9.9 18.6-19.6 13-33.3a49.7 49.7 0 0 1 75-59.3l-15 6.8c-14-5.8-30-1.8-39.7 8-13.2 13-15.9 36-.4 50.7Z" clip-rule="evenodd"/>
        </g>
      </g>
      <path stroke="#fff" d="M59.8.5h60.4c12.3 0 22.2.7 30 2.4a35.2 35.2 0 0 1 18 8.9 35.2 35.2 0 0 1 8.9 18c1.7 7.8 2.4 17.7 2.4 30v60.4c0 12.3-.7 22.2-2.4 30a35.2 35.2 0 0 1-8.9 18 35.2 35.2 0 0 1-18 8.9c-7.8 1.7-17.7 2.4-30 2.4H59.8c-12.3 0-22.2-.7-30-2.4a35.2 35.2 0 0 1-18-8.9 35.2 35.2 0 0 1-8.9-18c-1.7-7.8-2.4-17.7-2.4-30V59.8c0-12.3.7-22.2 2.4-30a35.2 35.2 0 0 1 8.9-18 35.2 35.2 0 0 1 18-8.9C37.6 1.2 47.5.5 59.8.5Z"/>
      <path stroke="#fff" stroke-width=".5" d="M89.3 0v180M0 90.8h180"/>
    </mask>
    <g mask="url(#o)">
      <path fill="url(#p)" d="M-159-9h400v198h-400z" opacity=".4"/>
      <g opacity=".4">
        <mask id="q" width="98" height="133" x="40" y="24" fill="#000" maskUnits="userSpaceOnUse">
          <path fill="#fff" d="M40 24h98v133H40z"/>
          <path d="M77.4 110.5a22 22 0 0 1-1-6.3c0-5 1.6-9.3 4.8-13a46 46 0 0 1 14.6-10.6l.8-.4c3.3-1.8 5.9-3.4 7.7-4.7 1.8-1.5 3-3 3.7-4.4.8-1.6 1.2-3.5 1.2-5.6 0-3.9-1.7-7-5-9A21.7 21.7 0 0 0 91.4 53c-4.6 0-8.8 1-12.7 3a32.1 32.1 0 0 0-10.2 8c-3 3.3-5.5 7.5-7.7 12.3l-17.8-5 11-44.7h22l1 1.2-4.8 10.4 2.3-1.4 2.8-1.4A34.2 34.2 0 0 1 88.7 32a49 49 0 0 1 27.7 3.4A32 32 0 0 1 130.6 47a29 29 0 0 1 5.3 17.4A26.3 26.3 0 0 1 125.4 86c-3.7 2.9-8.6 6-15 9.1l-.7.2a54 54 0 0 0-7 4.2 10 10 0 0 0-3.2 4.3 19 19 0 0 0-1 6.6h-21ZM89 154.7a16 16 0 0 1-11.6-4.6 16 16 0 0 1-4.6-11.5c0-4.7 1.6-8.5 4.8-11.6 3.2-3 7-4.6 11.4-4.6a15.7 15.7 0 0 1 16.1 16.2A15.7 15.7 0 0 1 89 154.7Z"/>
        </mask>
        <path fill="#fff" d="M77.4 110.5a22 22 0 0 1-1-6.3c0-5 1.6-9.3 4.8-13a46 46 0 0 1 14.6-10.6l.8-.4c3.3-1.8 5.9-3.4 7.7-4.7 1.8-1.5 3-3 3.7-4.4.8-1.6 1.2-3.5 1.2-5.6 0-3.9-1.7-7-5-9A21.7 21.7 0 0 0 91.4 53c-4.6 0-8.8 1-12.7 3a32.1 32.1 0 0 0-10.2 8c-3 3.3-5.5 7.5-7.7 12.3l-17.8-5 11-44.7h22l1 1.2-4.8 10.4 2.3-1.4 2.8-1.4A34.2 34.2 0 0 1 88.7 32a49 49 0 0 1 27.7 3.4A32 32 0 0 1 130.6 47a29 29 0 0 1 5.3 17.4A26.3 26.3 0 0 1 125.4 86c-3.7 2.9-8.6 6-15 9.1l-.7.2a54 54 0 0 0-7 4.2 10 10 0 0 0-3.2 4.3 19 19 0 0 0-1 6.6h-21ZM89 154.7a16 16 0 0 1-11.6-4.6 16 16 0 0 1-4.6-11.5c0-4.7 1.6-8.5 4.8-11.6 3.2-3 7-4.6 11.4-4.6a15.7 15.7 0 0 1 16.1 16.2A15.7 15.7 0 0 1 89 154.7Z"/>
        <path fill="#000" d="m77.4 110.5-1.9.6.4 1.4h1.5v-2Zm3.8-19.4-1.5-1.3 1.5 1.3Zm14.6-10.5-.7-1.9h-.2l.9 1.9Zm.8-.4.8 1.9h.1l.1-.1-1-1.8Zm7.7-4.7 1.2 1.6-1.2-1.6ZM108 71l-1.8-1v.1l1.8.9Zm-3.9-14.7L103 58l1.1-1.7ZM78.8 56l.9 1.8-.9-1.8Zm-10.2 8-1.5-1.3 1.5 1.3Zm-7.7 12.4-.5 2 1.7.4.7-1.6-1.9-.8Zm-17.8-5-2-.5-.4 1.8 1.8.6.6-2ZM54 26.6v-2h-1.6l-.4 1.5 2 .5Zm22 0 1.7-1.2-.6-.8h-1v2Zm1 1.2 1.7.8.5-1-.6-1-1.7 1.2Zm-4.8 10.4-1.9-.9-2.5 5.7 5.4-3.1-1-1.8Zm2.3-1.4 1 1.7h.1l-1-1.7Zm2.8-1.4.7 1.9h.2l-1-1.9Zm5-2-.5-2 .6 2Zm6.4-1.4.3 2-.3-2Zm27.7 3.4-.9 1.9.9-1.9ZM130.6 47l-1.6 1 1.6-1Zm2.8 29.4-1.8-.8 1.8.8Zm-8 9.7-1.3-1.6 1.3 1.6Zm-15 9.2.5 2 .2-.1.2-.1-.9-1.8Zm-.7.2-.4-2h-.3l-.2.2 1 1.8Zm-7 4.2 1.3 1.6-1.2-1.6Zm-3.2 4.3 1.9.8-1.9-.8Zm-1 6.6v2h2v-2h-2Zm-21 39.6-1.5 1.4 1.4-1.4Zm.1-23.1-1.4-1.5 1.4 1.5Zm23 0 1.4-1.4-1.4 1.4Zm0 23.1 1.4 1.4-1.4-1.4Zm-23.2-39.6 2-.6c-.7-2.1-1-4-1-5.7h-4c0 2.2.4 4.5 1.1 6.9l2-.6Zm-1-6.3h2c0-4.5 1.4-8.4 4.3-11.8l-1.5-1.3-1.5-1.3c-3.5 4.1-5.3 9-5.3 14.4h2Zm4.8-13 1.5 1.2a44 44 0 0 1 14-10l-.9-1.8-.9-1.8a47 47 0 0 0-15.2 11l1.5 1.3Zm14.6-10.6.7 1.8.9-.3-.8-1.9-.7-1.8-.8.3.7 1.9Zm.8-.4 1 1.8c3.3-1.8 6-3.5 7.9-5l-1.2-1.5-1.2-1.6a66 66 0 0 1-7.4 4.6l1 1.7Zm7.7-4.7 1.3 1.5a15 15 0 0 0 4.3-5.1l-1.9-.8-1.8-.9A11 11 0 0 1 103 74l1.3 1.6ZM108 71l1.8.9c1-2 1.4-4.2 1.4-6.5h-4c0 1.9-.3 3.4-1 4.7l1.8.9Zm1.2-5.6h2c0-4.6-2-8.2-6-10.7l-1 1.6-1.1 1.7a8.1 8.1 0 0 1 4.1 7.4h2Zm-5-9 1-1.7A23.7 23.7 0 0 0 91.6 51v4c4.9 0 8.6 1.1 11.5 3l1.1-1.6ZM91.4 53v-2c-4.9 0-9.4 1-13.6 3.1l.9 1.8.9 1.8C83.2 56 87.2 55 91.5 55v-2Zm-12.7 3-.9-1.9c-4 2-7.6 4.8-10.8 8.5l1.5 1.3 1.5 1.3c3-3.3 6.1-5.8 9.6-7.5l-.9-1.8Zm-10.2 8L67 62.6a51 51 0 0 0-8 13l1.8.7 1.9.8c2-4.7 4.5-8.6 7.3-11.9L68.6 64Zm-7.7 12.3.6-1.9-17.9-5-.5 1.8-.6 2 17.9 5 .5-1.9Zm-17.8-5 2 .4 10.8-44.5-2-.5-1.9-.5-10.8 44.6 1.9.4Zm11-44.7v2h22v-4H54v2Zm22 0-1.6 1.2.9 1.1 1.6-1.1 1.7-1.2-.9-1.2-1.6 1.2Zm1 1.2-2-.8-4.8 10.4 1.9.9 1.8.8 4.7-10.4L77 28Zm-4.8 10.4 1 1.7a1803 1803 0 0 1 1.1-.7l.3-.2.3-.1.3-.2.3-.2-1-1.7-1-1.7-.5.3-.6.3-.3.2-.3.2-.3.1-.3.2 1 1.8Zm2.3-1.4 1.1 1.7c.8-.5 1.6-1 2.4-1.2l-.7-1.9-.7-1.8c-1 .3-2.1.9-3.1 1.5l1 1.7Zm2.8-1.4.9 1.8c1.4-.7 3-1.4 4.8-1.9l-.6-2-.6-1.8a38 38 0 0 0-5.4 2.1l.9 1.8Zm5-2 .6 2a45 45 0 0 1 6-1.4l-.2-2-.3-2a49 49 0 0 0-6.6 1.5l.6 1.9Zm6.4-1.4.3 2a37 37 0 0 1 7-.6v-4a41 41 0 0 0-7.7.7l.4 2Zm7.3-.7v2a47 47 0 0 1 19.5 4l.9-1.9.8-1.8A51 51 0 0 0 96 29.4v2Zm20.4 4.1-.8 1.9A30 30 0 0 1 129 48l1.6-1 1.7-1.2a34 34 0 0 0-15.1-12.1l-.8 1.8ZM130.6 47l-1.6 1.2c3.3 4.6 5 10 5 16.2h4c0-7-2-13.2-5.7-18.5l-1.7 1.1Zm5.3 17.4h-2c0 4.2-.8 8-2.3 11.2l1.8.8 1.8.9c1.8-3.8 2.7-8.2 2.7-13h-2Zm-2.5 12-1.9-.8a24.3 24.3 0 0 1-7.4 9l1.3 1.5 1.2 1.6c4-3.1 6.8-6.6 8.6-10.4l-1.8-.9Zm-8 9.7-1.3-1.5a81 81 0 0 1-14.6 9l1 1.7.8 1.8a84.8 84.8 0 0 0 15.3-9.4l-1.2-1.6Zm-15 9.2-.5-2-.6.2.4 2 .5 2 .7-.3-.5-1.9Zm-.7.2-1-1.8a55.8 55.8 0 0 0-7.2 4.4l1.3 1.6 1.2 1.6c1.3-1 3.5-2.4 6.7-4l-1-1.8Zm-7 4.2-1.2-1.6a12 12 0 0 0-3.8 5.1l1.8.8 1.9.7a8 8 0 0 1 2.6-3.4l-1.2-1.6Zm-3.2 4.3-1.8-.8c-.8 2-1.2 4.4-1.2 7.4h4c0-2.7.3-4.6.9-5.8l-1.9-.8Zm-1 6.6v-2h-21v4h21v-2ZM89 154.7v-2a14 14 0 0 1-10.2-4l-1.4 1.4-1.4 1.5a18 18 0 0 0 13 5.1v-2Zm-11.6-4.6 1.5-1.4a14 14 0 0 1-4-10.1h-4c0 5 1.7 9.3 5.1 12.9l1.4-1.4Zm-4.6-11.5h2c0-4.2 1.4-7.5 4.2-10.2l-1.4-1.4-1.4-1.5a17.4 17.4 0 0 0-5.4 13h2Zm4.8-11.6 1.4 1.4c2.8-2.7 6-4 10-4v-4c-5 0-9.2 1.7-12.8 5.1l1.4 1.5Zm11.4-4.6v2c4.2 0 7.5 1.3 10.1 4l1.5-1.4 1.4-1.4a17.7 17.7 0 0 0-13-5.2v2Zm11.6 4.6-1.5 1.4c2.7 2.7 4 6 4 10.2h4c0-5.2-1.7-9.6-5.1-13l-1.4 1.4Zm4.5 11.6h-2c0 4-1.3 7.3-4 10.1l1.5 1.4 1.4 1.4a18 18 0 0 0 5.1-13h-2Zm-4.5 11.5-1.5-1.4c-2.6 2.7-6 4-10.1 4v4c5.1 0 9.5-1.7 13-5.2l-1.4-1.4Z" mask="url(#q)"/>
      </g>
    </g>
    <mask id="s" width="98" height="133" x="40" y="24" maskUnits="userSpaceOnUse" style="mask-type:alpha">
      <g opacity=".3">
        <mask id="r" width="98" height="133" x="40" y="24" fill="#000" maskUnits="userSpaceOnUse">
          <path fill="#fff" d="M40 24h98v133H40z"/>
          <path d="M77.4 110.5a22 22 0 0 1-1-6.3c0-5 1.6-9.3 4.8-13a46 46 0 0 1 14.6-10.6l.8-.4c3.3-1.8 5.9-3.4 7.7-4.7 1.8-1.5 3-3 3.7-4.4.8-1.6 1.2-3.5 1.2-5.6 0-3.9-1.7-7-5-9A21.7 21.7 0 0 0 91.4 53c-4.6 0-8.8 1-12.7 3a32.1 32.1 0 0 0-10.2 8c-3 3.3-5.5 7.5-7.7 12.3l-17.8-5 11-44.7h22l1 1.2-4.8 10.4 2.3-1.4 2.8-1.4A34.2 34.2 0 0 1 88.7 32a49 49 0 0 1 27.7 3.4A32 32 0 0 1 130.6 47a29 29 0 0 1 5.3 17.4A26.3 26.3 0 0 1 125.4 86c-3.7 2.9-8.6 6-15 9.1l-.7.2a54 54 0 0 0-7 4.2 10 10 0 0 0-3.2 4.3 19 19 0 0 0-1 6.6h-21ZM89 154.7a16 16 0 0 1-11.6-4.6 16 16 0 0 1-4.6-11.5c0-4.7 1.6-8.5 4.8-11.6 3.2-3 7-4.6 11.4-4.6a15.7 15.7 0 0 1 16.1 16.2A15.7 15.7 0 0 1 89 154.7Z"/>
        </mask>
        <path fill="#fff" d="M77.4 110.5a22 22 0 0 1-1-6.3c0-5 1.6-9.3 4.8-13a46 46 0 0 1 14.6-10.6l.8-.4c3.3-1.8 5.9-3.4 7.7-4.7 1.8-1.5 3-3 3.7-4.4.8-1.6 1.2-3.5 1.2-5.6 0-3.9-1.7-7-5-9A21.7 21.7 0 0 0 91.4 53c-4.6 0-8.8 1-12.7 3a32.1 32.1 0 0 0-10.2 8c-3 3.3-5.5 7.5-7.7 12.3l-17.8-5 11-44.7h22l1 1.2-4.8 10.4 2.3-1.4 2.8-1.4A34.2 34.2 0 0 1 88.7 32a49 49 0 0 1 27.7 3.4A32 32 0 0 1 130.6 47a29 29 0 0 1 5.3 17.4A26.3 26.3 0 0 1 125.4 86c-3.7 2.9-8.6 6-15 9.1l-.7.2a54 54 0 0 0-7 4.2 10 10 0 0 0-3.2 4.3 19 19 0 0 0-1 6.6h-21ZM89 154.7a16 16 0 0 1-11.6-4.6 16 16 0 0 1-4.6-11.5c0-4.7 1.6-8.5 4.8-11.6 3.2-3 7-4.6 11.4-4.6a15.7 15.7 0 0 1 16.1 16.2A15.7 15.7 0 0 1 89 154.7Z"/>
        <path fill="#000" d="m77.4 110.5-1.9.6.4 1.4h1.5v-2Zm3.8-19.4-1.5-1.3 1.5 1.3Zm14.6-10.5-.7-1.9h-.2l.9 1.9Zm.8-.4.8 1.9h.1l.1-.1-1-1.8Zm7.7-4.7 1.2 1.6-1.2-1.6ZM108 71l-1.8-1v.1l1.8.9Zm-3.9-14.7L103 58l1.1-1.7ZM78.8 56l.9 1.8-.9-1.8Zm-10.2 8-1.5-1.3 1.5 1.3Zm-7.7 12.4-.5 2 1.7.4.7-1.6-1.9-.8Zm-17.8-5-2-.5-.4 1.8 1.8.6.6-2ZM54 26.6v-2h-1.6l-.4 1.5 2 .5Zm22 0 1.7-1.2-.6-.8h-1v2Zm1 1.2 1.7.8.5-1-.6-1-1.7 1.2Zm-4.8 10.4-1.9-.9-2.5 5.7 5.4-3.1-1-1.8Zm2.3-1.4 1 1.7h.1l-1-1.7Zm2.8-1.4.7 1.9h.2l-1-1.9Zm5-2-.5-2 .6 2Zm6.4-1.4.3 2-.3-2Zm27.7 3.4-.9 1.9.9-1.9ZM130.6 47l-1.6 1 1.6-1Zm2.8 29.4-1.8-.8 1.8.8Zm-8 9.7-1.3-1.6 1.3 1.6Zm-15 9.2.5 2 .2-.1.2-.1-.9-1.8Zm-.7.2-.4-2h-.3l-.2.2 1 1.8Zm-7 4.2 1.3 1.6-1.2-1.6Zm-3.2 4.3 1.9.8-1.9-.8Zm-1 6.6v2h2v-2h-2Zm-21 39.6-1.5 1.4 1.4-1.4Zm.1-23.1-1.4-1.5 1.4 1.5Zm23 0 1.4-1.4-1.4 1.4Zm0 23.1 1.4 1.4-1.4-1.4Zm-23.2-39.6 2-.6c-.7-2.1-1-4-1-5.7h-4c0 2.2.4 4.5 1.1 6.9l2-.6Zm-1-6.3h2c0-4.5 1.4-8.4 4.3-11.8l-1.5-1.3-1.5-1.3c-3.5 4.1-5.3 9-5.3 14.4h2Zm4.8-13 1.5 1.2a44 44 0 0 1 14-10l-.9-1.8-.9-1.8a47 47 0 0 0-15.2 11l1.5 1.3Zm14.6-10.6.7 1.8.9-.3-.8-1.9-.7-1.8-.8.3.7 1.9Zm.8-.4 1 1.8c3.3-1.8 6-3.5 7.9-5l-1.2-1.5-1.2-1.6a66 66 0 0 1-7.4 4.6l1 1.7Zm7.7-4.7 1.3 1.5a15 15 0 0 0 4.3-5.1l-1.9-.8-1.8-.9A11 11 0 0 1 103 74l1.3 1.6ZM108 71l1.8.9c1-2 1.4-4.2 1.4-6.5h-4c0 1.9-.3 3.4-1 4.7l1.8.9Zm1.2-5.6h2c0-4.6-2-8.2-6-10.7l-1 1.6-1.1 1.7a8.1 8.1 0 0 1 4.1 7.4h2Zm-5-9 1-1.7A23.7 23.7 0 0 0 91.6 51v4c4.9 0 8.6 1.1 11.5 3l1.1-1.6ZM91.4 53v-2c-4.9 0-9.4 1-13.6 3.1l.9 1.8.9 1.8C83.2 56 87.2 55 91.5 55v-2Zm-12.7 3-.9-1.9c-4 2-7.6 4.8-10.8 8.5l1.5 1.3 1.5 1.3c3-3.3 6.1-5.8 9.6-7.5l-.9-1.8Zm-10.2 8L67 62.6a51 51 0 0 0-8 13l1.8.7 1.9.8c2-4.7 4.5-8.6 7.3-11.9L68.6 64Zm-7.7 12.3.6-1.9-17.9-5-.5 1.8-.6 2 17.9 5 .5-1.9Zm-17.8-5 2 .4 10.8-44.5-2-.5-1.9-.5-10.8 44.6 1.9.4Zm11-44.7v2h22v-4H54v2Zm22 0-1.6 1.2.9 1.1 1.6-1.1 1.7-1.2-.9-1.2-1.6 1.2Zm1 1.2-2-.8-4.8 10.4 1.9.9 1.8.8 4.7-10.4L77 28Zm-4.8 10.4 1 1.7a1803 1803 0 0 1 1.1-.7l.3-.2.3-.1.3-.2.3-.2-1-1.7-1-1.7-.5.3-.6.3-.3.2-.3.2-.3.1-.3.2 1 1.8Zm2.3-1.4 1.1 1.7c.8-.5 1.6-1 2.4-1.2l-.7-1.9-.7-1.8c-1 .3-2.1.9-3.1 1.5l1 1.7Zm2.8-1.4.9 1.8c1.4-.7 3-1.4 4.8-1.9l-.6-2-.6-1.8a38 38 0 0 0-5.4 2.1l.9 1.8Zm5-2 .6 2a45 45 0 0 1 6-1.4l-.2-2-.3-2a49 49 0 0 0-6.6 1.5l.6 1.9Zm6.4-1.4.3 2a37 37 0 0 1 7-.6v-4a41 41 0 0 0-7.7.7l.4 2Zm7.3-.7v2a47 47 0 0 1 19.5 4l.9-1.9.8-1.8A51 51 0 0 0 96 29.4v2Zm20.4 4.1-.8 1.9A30 30 0 0 1 129 48l1.6-1 1.7-1.2a34 34 0 0 0-15.1-12.1l-.8 1.8ZM130.6 47l-1.6 1.2c3.3 4.6 5 10 5 16.2h4c0-7-2-13.2-5.7-18.5l-1.7 1.1Zm5.3 17.4h-2c0 4.2-.8 8-2.3 11.2l1.8.8 1.8.9c1.8-3.8 2.7-8.2 2.7-13h-2Zm-2.5 12-1.9-.8a24.3 24.3 0 0 1-7.4 9l1.3 1.5 1.2 1.6c4-3.1 6.8-6.6 8.6-10.4l-1.8-.9Zm-8 9.7-1.3-1.5a81 81 0 0 1-14.6 9l1 1.7.8 1.8a84.8 84.8 0 0 0 15.3-9.4l-1.2-1.6Zm-15 9.2-.5-2-.6.2.4 2 .5 2 .7-.3-.5-1.9Zm-.7.2-1-1.8a55.8 55.8 0 0 0-7.2 4.4l1.3 1.6 1.2 1.6c1.3-1 3.5-2.4 6.7-4l-1-1.8Zm-7 4.2-1.2-1.6a12 12 0 0 0-3.8 5.1l1.8.8 1.9.7a8 8 0 0 1 2.6-3.4l-1.2-1.6Zm-3.2 4.3-1.8-.8c-.8 2-1.2 4.4-1.2 7.4h4c0-2.7.3-4.6.9-5.8l-1.9-.8Zm-1 6.6v-2h-21v4h21v-2ZM89 154.7v-2a14 14 0 0 1-10.2-4l-1.4 1.4-1.4 1.5a18 18 0 0 0 13 5.1v-2Zm-11.6-4.6 1.5-1.4a14 14 0 0 1-4-10.1h-4c0 5 1.7 9.3 5.1 12.9l1.4-1.4Zm-4.6-11.5h2c0-4.2 1.4-7.5 4.2-10.2l-1.4-1.4-1.4-1.5a17.4 17.4 0 0 0-5.4 13h2Zm4.8-11.6 1.4 1.4c2.8-2.7 6-4 10-4v-4c-5 0-9.2 1.7-12.8 5.1l1.4 1.5Zm11.4-4.6v2c4.2 0 7.5 1.3 10.1 4l1.5-1.4 1.4-1.4a17.7 17.7 0 0 0-13-5.2v2Zm11.6 4.6-1.5 1.4c2.7 2.7 4 6 4 10.2h4c0-5.2-1.7-9.6-5.1-13l-1.4 1.4Zm4.5 11.6h-2c0 4-1.3 7.3-4 10.1l1.5 1.4 1.4 1.4a18 18 0 0 0 5.1-13h-2Zm-4.5 11.5-1.5-1.4c-2.6 2.7-6 4-10.1 4v4c5.1 0 9.5-1.7 13-5.2l-1.4-1.4Z" mask="url(#r)"/>
      </g>
    </mask>
    <g mask="url(#s)">
      <path fill="url(#t)" d="M-159-9h400v198h-400z"/>
    </g>
  </g>
  <defs>
    <linearGradient id="p" x1="127.5" x2="36" y1="162" y2="42.5" gradientUnits="userSpaceOnUse">
      <stop stop-color="#33CAFF"/>
      <stop offset=".3" stop-color="#8169FF"/>
      <stop offset=".5" stop-color="#FF7FE5"/>
      <stop offset=".7" stop-color="#FFE475"/>
      <stop offset="1" stop-color="#2FFFE7"/>
    </linearGradient>
    <linearGradient id="t" x1="127.5" x2="36" y1="162" y2="42.5" gradientUnits="userSpaceOnUse">
      <stop stop-color="#33CAFF"/>
      <stop offset=".3" stop-color="#8169FF"/>
      <stop offset=".5" stop-color="#FF7FE5"/>
      <stop offset=".7" stop-color="#FFE475"/>
      <stop offset="1" stop-color="#2FFFE7"/>
    </linearGradient>
    <clipPath id="a">
      <path fill="#fff" d="M0 0h180v180H0z"/>
    </clipPath>
  </defs>
</svg>
