<svg width="479" height="329" viewBox="0 0 479 329" fill="none" xmlns="http://www.w3.org/2000/svg">
<path d="M97 194.5L120 325L476.5 2.5L97 194.5Z" fill="#FE7F42" stroke="black" stroke-width="5" stroke-linejoin="bevel"/>
<path d="M136.5 220.5L120.5 324.5L476.5 2.5L136.5 220.5Z" fill="#E488FE"/>
<path d="M136.5 220.5L171 277L476.5 2.5L136.5 220.5Z" fill="#CB42FA"/>
<path d="M136.5 220.5L120.5 324.5L476.5 2.5L136.5 220.5Z" stroke="black" stroke-width="5" stroke-linejoin="bevel"/>
<path d="M2 131L476.5 2.5L277 326.5L136 220.5L476.5 2.5L97 194.451L2 131Z" fill="#FCC40A"/>
<path d="M476.5 2.5L2 131L97 194.451L476.5 2.5ZM476.5 2.5L277 326.5L136 220.5L476.5 2.5Z" stroke="black" stroke-width="5" stroke-linejoin="bevel"/>
</svg>
