<svg xmlns="http://www.w3.org/2000/svg" width="106" height="57" fill="none"><g clip-path="url(#a)"><mask id="c" width="102" height="53" x="1" y="1" maskUnits="userSpaceOnUse" style="mask-type:alpha"><mask id="b" width="102" height="53" x="1" y="1" fill="#000" maskUnits="userSpaceOnUse"><path fill="#fff" d="M1 1h102v53H1z"/><path d="M12.5 31.65v-6.5h6.14c2.03 0 3.55-.4 4.55-1.2 1-.83 1.5-2.2 1.5-4.1 0-1.8-.47-3.13-1.4-4-.9-.9-2.28-1.35-4.15-1.35H12.5V8h7.1c1.9 0 3.67.23 5.3.7a11.3 11.3 0 0 1 4.25 2.1A9.62 9.62 0 0 1 32 14.45c.7 1.47 1.05 3.23 1.05 5.3 0 2.63-.6 4.83-1.8 6.6a10.69 10.69 0 0 1-5.1 4c-2.23.87-4.97 1.3-8.2 1.3H12.5ZM6.43 41V8h8.1v33h-8.1Zm29.1 0V6h8.1v35h-8.1Zm18.67.7c-1.34 0-2.6-.23-3.8-.7a6.57 6.57 0 0 1-2.95-2.25 7.13 7.13 0 0 1-1.15-4.25c0-1.63.31-2.95.95-3.95a6.92 6.92 0 0 1 2.55-2.45 12.4 12.4 0 0 1 3.5-1.4c1.26-.33 2.51-.62 3.75-.85 1.73-.33 3.03-.6 3.9-.8.86-.2 1.45-.43 1.75-.7.33-.27.5-.63.5-1.1 0-.97-.37-1.7-1.1-2.2-.7-.5-1.64-.75-2.8-.75a6.4 6.4 0 0 0-2.2.4c-.74.27-1.34.75-1.8 1.45a4.8 4.8 0 0 0-.65 2.9l-7.2-.5c-.07-2.1.25-3.83.95-5.2a8 8 0 0 1 2.85-3.25 12.5 12.5 0 0 1 4-1.7c1.46-.33 2.91-.5 4.35-.5 2.63 0 4.8.5 6.5 1.5a8.67 8.67 0 0 1 3.75 4.25 16.13 16.13 0 0 1 1.25 6.7V41h-7v-7.55h-.3a8.58 8.58 0 0 1-1.5 4.15 9.42 9.42 0 0 1-8.1 4.1Zm3.35-5.9a5.56 5.56 0 0 0 5.1-3.45c.36-.9.55-2 .55-3.3v-1.2l1.35-.15c-.27.43-.72.78-1.35 1.05-.6.27-1.29.48-2.05.65-.77.13-1.55.28-2.35.45-.77.13-1.49.33-2.15.6a4.3 4.3 0 0 0-1.65 1c-.4.4-.6.97-.6 1.7 0 .87.3 1.53.9 2a3.9 3.9 0 0 0 2.25.65Zm26.3 13a24.13 24.13 0 0 1-6.9-1.05 17.7 17.7 0 0 1-3.35-1.4l1.85-8.15a10.36 10.36 0 0 0 4 2.4c1.5.47 2.83.7 4 .7 1.63 0 3-.32 4.1-.95a6.24 6.24 0 0 0 2.55-2.85c.56-1.27.85-2.8.85-4.6v-4.6h-.45a14.65 14.65 0 0 1-1.15 5.75 7.04 7.04 0 0 1-2.75 3.25 7.72 7.72 0 0 1-4.05 1.05 7.6 7.6 0 0 1-4.75-1.45 8.83 8.83 0 0 1-2.8-4.35 23.6 23.6 0 0 1-.95-7.25V14.6h8.05v8.6c0 2.83.3 4.9.9 6.2.6 1.3 1.55 1.95 2.85 1.95.66 0 1.25-.17 1.75-.5.53-.37.96-.9 1.3-1.6.33-.73.58-1.63.75-2.7.16-1.1.25-2.37.25-3.8V14.6h8.05v18.6c0 1.8-.19 3.5-.55 5.1a15.46 15.46 0 0 1-1.65 4.25 11.82 11.82 0 0 1-6.75 5.5c-1.5.5-3.22.75-5.15.75Z"/></mask><path fill="#000" d="M12.5 31.65v-6.5h6.14c2.03 0 3.55-.4 4.55-1.2 1-.83 1.5-2.2 1.5-4.1 0-1.8-.47-3.13-1.4-4-.9-.9-2.28-1.35-4.15-1.35H12.5V8h7.1c1.9 0 3.67.23 5.3.7a11.3 11.3 0 0 1 4.25 2.1A9.62 9.62 0 0 1 32 14.45c.7 1.47 1.05 3.23 1.05 5.3 0 2.63-.6 4.83-1.8 6.6a10.69 10.69 0 0 1-5.1 4c-2.23.87-4.97 1.3-8.2 1.3H12.5ZM6.43 41V8h8.1v33h-8.1Zm29.1 0V6h8.1v35h-8.1Zm18.67.7c-1.34 0-2.6-.23-3.8-.7a6.57 6.57 0 0 1-2.95-2.25 7.13 7.13 0 0 1-1.15-4.25c0-1.63.31-2.95.95-3.95a6.92 6.92 0 0 1 2.55-2.45 12.4 12.4 0 0 1 3.5-1.4c1.26-.33 2.51-.62 3.75-.85 1.73-.33 3.03-.6 3.9-.8.86-.2 1.45-.43 1.75-.7.33-.27.5-.63.5-1.1 0-.97-.37-1.7-1.1-2.2-.7-.5-1.64-.75-2.8-.75a6.4 6.4 0 0 0-2.2.4c-.74.27-1.34.75-1.8 1.45a4.8 4.8 0 0 0-.65 2.9l-7.2-.5c-.07-2.1.25-3.83.95-5.2a8 8 0 0 1 2.85-3.25 12.5 12.5 0 0 1 4-1.7c1.46-.33 2.91-.5 4.35-.5 2.63 0 4.8.5 6.5 1.5a8.67 8.67 0 0 1 3.75 4.25 16.13 16.13 0 0 1 1.25 6.7V41h-7v-7.55h-.3a8.58 8.58 0 0 1-1.5 4.15 9.42 9.42 0 0 1-8.1 4.1Zm3.35-5.9a5.56 5.56 0 0 0 5.1-3.45c.36-.9.55-2 .55-3.3v-1.2l1.35-.15c-.27.43-.72.78-1.35 1.05-.6.27-1.29.48-2.05.65-.77.13-1.55.28-2.35.45-.77.13-1.49.33-2.15.6a4.3 4.3 0 0 0-1.65 1c-.4.4-.6.97-.6 1.7 0 .87.3 1.53.9 2a3.9 3.9 0 0 0 2.25.65Zm26.3 13a24.13 24.13 0 0 1-6.9-1.05 17.7 17.7 0 0 1-3.35-1.4l1.85-8.15a10.36 10.36 0 0 0 4 2.4c1.5.47 2.83.7 4 .7 1.63 0 3-.32 4.1-.95a6.24 6.24 0 0 0 2.55-2.85c.56-1.27.85-2.8.85-4.6v-4.6h-.45a14.65 14.65 0 0 1-1.15 5.75 7.04 7.04 0 0 1-2.75 3.25 7.72 7.72 0 0 1-4.05 1.05 7.6 7.6 0 0 1-4.75-1.45 8.83 8.83 0 0 1-2.8-4.35 23.6 23.6 0 0 1-.95-7.25V14.6h8.05v8.6c0 2.83.3 4.9.9 6.2.6 1.3 1.55 1.95 2.85 1.95.66 0 1.25-.17 1.75-.5.53-.37.96-.9 1.3-1.6.33-.73.58-1.63.75-2.7.16-1.1.25-2.37.25-3.8V14.6h8.05v18.6c0 1.8-.19 3.5-.55 5.1a15.46 15.46 0 0 1-1.65 4.25 11.82 11.82 0 0 1-6.75 5.5c-1.5.5-3.22.75-5.15.75Z"/><path fill="#000" d="M12.5 31.65h-5a5 5 0 0 0 5 5v-5Zm0-6.5v-5a5 5 0 0 0-5 5h5Zm10.7-1.2 3.11 3.9.08-.06-3.2-3.84Zm.1-8.1-3.54 3.54.13.12 3.4-3.66ZM12.5 14.5h-5a5 5 0 0 0 5 5v-5Zm0-6.5V3a5 5 0 0 0-5 5h5Zm12.4.7-1.38 4.8.09.03 1.28-4.83Zm4.24 2.1L26 14.7c.02 0 .04.02.06.04l3.08-3.94ZM32 14.45l-4.55 2.07a5 5 0 0 0 .04.08L32 14.45Zm-.75 11.9-4.13-2.8c-.02 0-.03.03-.04.04l4.17 2.76Zm-5.1 4 1.81 4.66.06-.02-1.87-4.64ZM6.44 41h-5a5 5 0 0 0 5 5v-5Zm0-33V3a5 5 0 0 0-5 5h5Zm8.1 0h5a5 5 0 0 0-5-5v5Zm0 33v5a5 5 0 0 0 5-5h-5Zm-2.05-9.35h5v-6.5h-10v6.5h5Zm0-6.5v5h6.15v-10H12.5v5Zm6.15 0v5c2.55 0 5.4-.48 7.67-2.3l-3.12-3.9-3.12-3.9c.15-.13.2-.1-.04-.03-.24.06-.68.13-1.39.13v5Zm4.55-1.2 3.2 3.84c2.59-2.15 3.3-5.26 3.3-7.94h-10c0 .26-.02.44-.03.57l-.04.16s.03-.08.1-.17c.06-.1.16-.2.27-.3l3.2 3.84Zm1.5-4.1h5c0-2.6-.68-5.51-3-7.66l-3.4 3.66-3.4 3.66a1.26 1.26 0 0 1-.2-.24l-.07-.12c0 .01.07.22.07.7h5Zm-1.4-4 3.54-3.54c-2.2-2.2-5.11-2.81-7.69-2.81v10c.55 0 .82.07.9.1.04 0-.1-.03-.28-.21l3.53-3.54Zm-4.15-1.35v-5H12.5v10h6.65v-5Zm-6.65 0h5V8h-10v6.5h5Zm0-6.5v5h7.1V3h-7.1v5Zm7.1 0v5c1.5 0 2.8.18 3.93.5l1.37-4.8 1.38-4.8c-2.13-.62-4.37-.9-6.68-.9v5Zm5.3.7-1.28 4.83a6.4 6.4 0 0 1 2.4 1.16l3.13-3.89 3.14-3.9a16.3 16.3 0 0 0-6.1-3.03l-1.3 4.83Zm4.25 2.1-3.08 3.94a4.62 4.62 0 0 1 1.38 1.78l4.55-2.07 4.55-2.07a14.62 14.62 0 0 0-4.31-5.52l-3.09 3.94ZM32 14.45l-4.51 2.15c.3.64.56 1.63.56 3.15h10c0-2.62-.44-5.16-1.54-7.45L32 14.45Zm1.05 5.3h-5c0 1.87-.42 3.03-.93 3.8l4.13 2.8 4.14 2.8a16.45 16.45 0 0 0 2.66-9.4h-5Zm-1.8 6.6-4.17-2.76a5.72 5.72 0 0 1-2.8 2.12l1.87 4.64 1.87 4.64a15.68 15.68 0 0 0 7.4-5.88l-4.17-2.76Zm-5.1 4-1.8-4.66c-1.5.58-3.58.96-6.4.96v10c3.65 0 7.04-.48 10.01-1.64l-1.8-4.66Zm-8.2 1.3v-5H12.5v10h5.45v-5ZM6.44 41h5V8h-10v33h5Zm0-33v5h8.1V3h-8.1v5Zm8.1 0h-5v33h10V8h-5Zm0 33v-5h-8.1v10h8.1v-5Zm21 0h-5a5 5 0 0 0 5 5v-5Zm0-35V1a5 5 0 0 0-5 5h5Zm8.1 0h5a5 5 0 0 0-5-5v5Zm0 35v5a5 5 0 0 0 5-5h-5Zm-8.1 0h5V6h-10v35h5Zm0-35v5h8.1V1h-8.1v5Zm8.1 0h-5v35h10V6h-5Zm0 35v-5h-8.1v10h8.1v-5Zm6.77 0 1.8-4.66-1.8 4.66Zm-2.95-2.25-4.06 2.92.04.06 4.02-2.98Zm-.2-8.2 4.22 2.68.04-.07-4.26-2.61Zm2.55-2.45 2.45 4.36.1-.06-2.55-4.3Zm3.5-1.4 1.15 4.87.12-.03-1.27-4.84Zm3.75-.85.93 4.91H58l-.94-4.91Zm3.9-.8 1.12 4.87-1.12-4.87Zm1.75-.7-3.13-3.9-.2.16 3.33 3.74Zm-.6-3.3-2.9 4.07.08.06 2.82-4.13Zm-5-.35 1.7 4.7-1.7-4.7Zm-1.8 1.45 4.1 2.87a5 5 0 0 0 .06-.1l-4.16-2.77Zm-.65 2.9-.35 4.99a5 5 0 0 0 5.35-5.12l-5 .13Zm-7.2-.5-5 .16a5 5 0 0 0 4.65 4.83l.35-4.99Zm.95-5.2 4.45 2.28.02-.04-4.47-2.24Zm2.85-3.25 2.69 4.21s.02 0 .03-.02l-2.72-4.19Zm4-1.7-1.11-4.88-.03.01 1.14 4.87Zm10.85 1-2.54 4.31a5 5 0 0 0 .07.04l2.47-4.35Zm3.75 4.25-4.6 1.97.05.1 4.55-2.07ZM71.1 41v5a5 5 0 0 0 5-5h-5Zm-7 0h-5a5 5 0 0 0 5 5v-5Zm0-7.55h5a5 5 0 0 0-5-5v5Zm-.3 0v-5a5 5 0 0 0-4.98 4.56l4.98.44Zm-1.5 4.15-4.13-2.82-.02.02 4.15 2.8Zm-3.35 3 2.36 4.4.04-.01-2.4-4.39Zm.4-5.1 1.5 4.77.15-.05-1.65-4.72Zm1.85-1.1L58 30.56a5.2 5.2 0 0 0-.11.1l3.3 3.74Zm1.45-2.05 4.6 1.95.03-.06-4.63-1.89Zm.55-4.5-.56-4.97a5 5 0 0 0-4.44 4.97h5Zm1.35-.15 4.26 2.62A5 5 0 0 0 64 22.73l.56 4.97Zm-1.35 1.05-1.94-4.6a6 6 0 0 0-.1.03l2.04 4.57Zm-2.05.65.85 4.93.2-.04-1.05-4.89Zm-2.35.45.85 4.93.17-.04-1.02-4.89Zm-2.15.6 1.65 4.72.2-.08-1.85-4.64Zm-1.35 4.7-3.07 3.95.24.18 2.83-4.13Zm-1.1 6.55v-5a5.4 5.4 0 0 1-2-.36L50.42 41l-1.82 4.66c1.8.7 3.69 1.04 5.62 1.04v-5Zm-3.8-.7 1.8-4.66c-.31-.13-.53-.3-.74-.57l-4.01 2.98-4.02 2.98a11.56 11.56 0 0 0 5.15 3.93L50.41 41Zm-2.95-2.25 4.06-2.92h-.01l-.02-.05-.07-.2a4.5 4.5 0 0 1-.11-1.08h-10c0 2.46.53 5 2.09 7.17l4.06-2.92ZM46.3 34.5h5c0-1.03.2-1.32.17-1.27l-4.22-2.68-4.23-2.68a12.24 12.24 0 0 0-1.72 6.63h5Zm.95-3.95 4.26 2.61c.18-.3.4-.52.74-.7L49.8 28.1l-2.45-4.36a11.92 11.92 0 0 0-4.37 4.2l4.27 2.61Zm2.55-2.45 2.55 4.3a7.2 7.2 0 0 1 2.1-.83L53.3 26.7l-1.16-4.87a17.41 17.41 0 0 0-4.9 1.97l2.56 4.3Zm3.5-1.4 1.27 4.84c1.16-.3 2.3-.57 3.4-.78l-.92-4.91-.93-4.91c-1.36.25-2.72.56-4.1.92l1.28 4.84Zm3.75-.85.94 4.91c1.75-.34 3.12-.62 4.08-.84l-1.12-4.87-1.13-4.87c-.77.18-2 .43-3.72.76l.95 4.91Zm3.9-.8 1.12 4.87a8.94 8.94 0 0 0 3.95-1.83l-3.32-3.74-3.32-3.74a3.4 3.4 0 0 1 .8-.53l-.36.1 1.13 4.87Zm1.75-.7 3.12 3.9a6.33 6.33 0 0 0 2.38-5h-10a3.72 3.72 0 0 1 1.38-2.8l3.12 3.9Zm.5-1.1h5c0-2.45-1.05-4.8-3.29-6.33l-2.81 4.13-2.82 4.13a2.58 2.58 0 0 1-1.08-1.93h5Zm-1.1-2.2 2.9-4.07a9.68 9.68 0 0 0-5.7-1.68v10c.23 0 .31.03.28.02a1.54 1.54 0 0 1-.39-.2l2.9-4.07Zm-2.8-.75v-5c-1.36 0-2.67.25-3.91.7l1.7 4.7 1.72 4.7c.22-.08.37-.1.49-.1v-5Zm-2.2.4L55.4 16a8.62 8.62 0 0 0-4.25 3.38l4.16 2.77 4.16 2.77a1.53 1.53 0 0 1-.65.48l-1.71-4.7Zm-1.8 1.45-4.1-2.87a9.71 9.71 0 0 0-1.55 5.9l5-.13 5-.13v-.35l.01-.1c0 .02-.05.24-.27.55l-4.1-2.87Zm-.65 2.9.34-4.99-7.2-.5-.34 4.99-.35 4.99 7.2.5.35-4.99Zm-7.2-.5 5-.16a5.8 5.8 0 0 1 .4-2.76l-4.45-2.28-4.45-2.28a15.55 15.55 0 0 0-1.5 7.64l5-.16Zm.95-5.2 4.47 2.24c.34-.68.7-1.04 1.07-1.28l-2.7-4.21-2.68-4.21a12.99 12.99 0 0 0-4.64 5.22l4.48 2.24Zm2.85-3.25 2.72 4.2a7.5 7.5 0 0 1 2.41-1.03l-1.13-4.87-1.14-4.87a17.5 17.5 0 0 0-5.58 2.38l2.72 4.19Zm4-1.7 1.1 4.88c1.13-.26 2.2-.38 3.25-.38v-10c-1.83 0-3.65.21-5.46.62l1.1 4.88Zm4.35-.5v5c2.03 0 3.25.39 3.96.81l2.54-4.31 2.53-4.31c-2.68-1.58-5.8-2.19-9.03-2.19v5Zm6.5 1.5-2.47 4.35c.7.4 1.23.96 1.62 1.87l4.6-1.97 4.6-1.97a13.66 13.66 0 0 0-5.88-6.63L66.1 15.4Zm3.75 4.25-4.55 2.07c.46 1.02.8 2.5.8 4.63h10c0-3.14-.5-6.12-1.7-8.77l-4.55 2.07Zm1.25 6.7h-5v4.7h10v-4.7h-5Zm0 4.7h-5v3.35h10v-3.36h-5Zm0 3.35h-5v3.3h10v-3.3h-5Zm0 3.3h-5V41h10v-3.3h-5Zm0 3.3v-5h-7v10h7v-5Zm-7 0h5v-3.66h-10V41h5Zm0-3.65h5v-3.91h-10v3.92h5Zm0-3.9v-5h-.3v10h.3v-5Zm-.3 0-4.98-.44c-.06.63-.26 1.2-.65 1.77l4.13 2.82 4.12 2.82a13.58 13.58 0 0 0 2.36-6.53l-4.98-.44Zm-1.5 4.15-4.15-2.8c-.35.53-.85 1-1.6 1.41l2.4 4.39 2.4 4.39a14.42 14.42 0 0 0 5.09-4.6L62.3 37.6Zm-3.35 3-2.37-4.4c-.53.28-1.27.5-2.38.5v10c2.49 0 4.9-.51 7.11-1.7l-2.36-4.4Zm-1.4-4.8v5c1.15 0 2.26-.2 3.3-.53l-1.5-4.77-1.5-4.77c-.24.07-.33.07-.3.07v5Zm1.8-.3L61 40.22a10.56 10.56 0 0 0 3.5-2.07l-3.3-3.75-3.31-3.75a.6.6 0 0 1-.2.13l1.66 4.72Zm1.85-1.1 3.2 3.84a10.24 10.24 0 0 0 2.85-3.94l-4.6-1.95-4.6-1.95-.12.23c-.01 0 0-.02.07-.07l3.2 3.84Zm1.45-2.05 4.63 1.89c.68-1.67.92-3.45.92-5.19h-10a4.1 4.1 0 0 1-.18 1.41l4.63 1.89Zm.55-3.3h5v-1.2h-10v1.2h5Zm0-1.2.55 4.97 1.35-.15-.55-4.97-.56-4.97-1.35.15.56 4.97Zm1.35-.15-4.26-2.62a2.6 2.6 0 0 1 .97-.94l1.94 4.61 1.94 4.6a7.75 7.75 0 0 0 3.67-3.03l-4.26-2.62Zm-1.35 1.05-2.03-4.57c-.24.1-.59.23-1.09.33l1.07 4.89 1.06 4.89c1.04-.23 2.05-.54 3.02-.97l-2.03-4.57Zm-2.05.65-.86-4.93c-.82.15-1.66.3-2.51.49l1.02 4.89 1.02 4.9c.75-.16 1.47-.3 2.18-.42l-.85-4.93Zm-2.35.45-.86-4.93c-1.08.2-2.14.48-3.15.89l1.86 4.64 1.85 4.64c.32-.13.7-.24 1.15-.31l-.85-4.93Zm-2.15.6L55 25.73a9.29 9.29 0 0 0-3.54 2.18L55 31.45l3.53 3.54c-.08.08-.15.13-.2.16-.05.03-.07.03-.03.02l-1.65-4.72Zm-1.65 1-3.54-3.54a7.28 7.28 0 0 0-2.06 5.24h10c0 .08-.01.33-.14.69a3.1 3.1 0 0 1-.73 1.15L55 31.45Zm-.6 1.7h-5c0 2.16.83 4.4 2.83 5.95l3.07-3.95 3.07-3.95c.31.25.61.6.81 1.05.2.42.22.76.22.9h-5Zm.9 2-2.83 4.13a8.88 8.88 0 0 0 5.08 1.52v-10l.17.03c.13.04.27.1.4.2l-2.82 4.12Zm25.25 13.4.68-4.95-.68 4.95Zm-3.6-.8 1.46-4.78-1.46 4.78Zm-3.35-1.4-4.88-1.1a5 5 0 0 0 2.47 5.48l2.4-4.38Zm1.85-8.15 3.43-3.64a5 5 0 0 0-8.31 2.53l4.88 1.11Zm4 2.4-1.52 4.76.03.01 1.49-4.77Zm8.1-.25 2.49 4.33.04-.02-2.53-4.31Zm2.55-2.85 4.54 2.09.02-.05-4.56-2.04Zm.85-9.2h5a5 5 0 0 0-5-5v5Zm-.45 0v-5a5 5 0 0 0-5 4.86l5 .14Zm-1.15 5.75-4.54-2.11c0 .01 0 .03-.02.04l4.56 2.07ZM86.6 37.3l-2.58-4.29 2.58 4.29Zm-8.8-.4-3.09 3.94c.02 0 .03.02.05.03l3.04-3.97ZM75 32.55l4.75-1.56L75 32.55Zm-.95-17.95v-5a5 5 0 0 0-5 5h5Zm8.05 0h5a5 5 0 0 0-5-5v5Zm.9 14.8-4.54 2.1L83 29.4Zm4.6 1.45 2.77 4.16.06-.04-2.83-4.12Zm1.3-1.6 4.51 2.15.04-.08-4.55-2.07Zm.75-2.7 4.94.77v-.02l-4.94-.75Zm.25-11.95v-5a5 5 0 0 0-5 5h5Zm8.05 0h5a5 5 0 0 0-5-5v5Zm-.55 23.7 4.86 1.14v-.02L97.4 38.3Zm-1.65 4.25-4.33-2.5-.03.04 4.36 2.46Zm-2.8 3.35-3.18-3.86-.06.05 3.24 3.81ZM89 48.05l-1.55-4.75h-.04L89 48.05Zm-5.15.75v-5c-.73 0-1.6-.06-2.62-.2l-.68 4.95-.7 4.95c1.39.2 2.72.3 4 .3v-5Zm-3.3-.25.68-4.95c-.93-.13-1.87-.34-2.82-.63l-1.46 4.78-1.47 4.78c1.45.44 2.9.77 4.38.97l.69-4.95Zm-3.6-.8 1.46-4.78c-.9-.27-1.7-.61-2.41-1l-2.4 4.38-2.4 4.38c1.34.75 2.78 1.34 4.28 1.8l1.47-4.78Zm-3.35-1.4 4.87 1.1 1.85-8.14-4.87-1.11-4.88-1.1-1.85 8.14 4.88 1.11Zm1.85-8.15-3.44 3.64a15.36 15.36 0 0 0 5.92 3.52l1.52-4.76 1.51-4.76a5.37 5.37 0 0 1-2.08-1.28l-3.43 3.64Zm4 2.4-1.49 4.77c1.83.57 3.67.93 5.49.93v-10c-.53 0-1.34-.1-2.52-.47l-1.48 4.77Zm4 .7v5c2.26 0 4.54-.44 6.59-1.62l-2.5-4.33-2.49-4.33c-.15.09-.6.28-1.6.28v5Zm4.1-.95 2.53 4.31a11.24 11.24 0 0 0 4.56-5.07L90.1 37.5l-4.55-2.09c-.15.34-.32.5-.54.63l2.54 4.31Zm2.55-2.85 4.56 2.04a16.18 16.18 0 0 0 1.29-6.64h-10c0 1.3-.21 2.1-.42 2.56l4.57 2.04Zm.85-4.6h5v-4.6h-10v4.6h5Zm0-4.6v-5h-.45v10h.45v-5Zm-.45 0-5-.14a9.85 9.85 0 0 1-.69 3.78l4.54 2.11 4.53 2.11a19.56 19.56 0 0 0 1.61-7.72l-5-.14Zm-1.15 5.75-4.56-2.07c-.32.72-.62.94-.77 1.03l2.58 4.29 2.57 4.29a12.02 12.02 0 0 0 4.73-5.47l-4.55-2.07ZM86.6 37.3l-2.58-4.29c-.3.18-.73.34-1.47.34v10c2.32 0 4.58-.54 6.62-1.76L86.6 37.3Zm-4.05 1.05v-5c-1.03 0-1.48-.24-1.72-.42L77.8 36.9l-3.04 3.97c2.3 1.76 5 2.48 7.79 2.48v-5ZM77.8 36.9l3.08-3.94c-.25-.2-.72-.7-1.13-1.97L75 32.55l-4.76 1.56c.85 2.6 2.26 4.99 4.47 6.73l3.09-3.94ZM75 32.55l4.75-1.56c-.42-1.26-.7-3.11-.7-5.69h-10c0 3.22.34 6.2 1.2 8.8L75 32.56Zm-.95-7.25h5V14.6h-10v10.7h5Zm0-10.7v5h8.05v-10h-8.05v5Zm8.05 0h-5v8.6h10v-8.6h-5Zm0 8.6h-5c0 2.98.28 5.97 1.36 8.3L83 29.4l4.54-2.1c-.13-.27-.44-1.42-.44-4.1h-5Zm.9 6.2-4.54 2.1a7.9 7.9 0 0 0 7.39 4.85v-10c.22 0 .67.07 1.13.39.43.3.57.6.56.56L83 29.4Zm2.85 1.95v5c1.54 0 3.1-.4 4.52-1.34l-2.77-4.16-2.78-4.16a2.11 2.11 0 0 1 1.03-.34v5Zm1.75-.5 2.83 4.12a8.92 8.92 0 0 0 2.98-3.57l-4.51-2.15-4.52-2.15.06-.08c.07-.08.17-.19.32-.29l2.84 4.12Zm1.3-1.6 4.55 2.07a15.8 15.8 0 0 0 1.14-4l-4.94-.77-4.94-.77c-.12.76-.27 1.2-.37 1.4l4.56 2.07Zm.75-2.7 4.94.75c.21-1.4.3-2.93.3-4.55h-10c0 1.25-.07 2.26-.19 3.05l4.95.75Zm.25-3.8h5V14.6h-10v8.15h5Zm0-8.15v5h8.05v-10H89.9v5Zm8.05 0h-5v18.6h10V14.6h-5Zm0 18.6h-5c0 1.46-.15 2.78-.43 3.98l4.88 1.12 4.87 1.12c.46-2 .67-4.08.67-6.22h-5Zm-.55 5.1-4.87-1.14a10.47 10.47 0 0 1-1.11 2.88l4.33 2.51 4.32 2.5c1-1.73 1.73-3.61 2.2-5.61L97.4 38.3Zm-1.65 4.25-4.36-2.46a6.82 6.82 0 0 1-1.62 1.95l3.18 3.86 3.17 3.86a16.82 16.82 0 0 0 3.98-4.75l-4.35-2.46Zm-2.8 3.35-3.24-3.81a6.6 6.6 0 0 1-2.26 1.2L89 48.06l1.55 4.75a16.49 16.49 0 0 0 5.63-3.09l-3.23-3.81ZM89 48.05l-1.59-4.74c-.89.3-2.05.49-3.56.49v10c2.35 0 4.62-.3 6.73-1L89 48.04Z" mask="url(#b)"/></mask><g mask="url(#c)"><path fill="url(#d)" d="M-148-76h400v198h-400z"/><g filter="url(#e)"><mask id="f" width="94" height="45" x="5" y="5" fill="#000" maskUnits="userSpaceOnUse"><path fill="#fff" d="M5 5h94v45H5z"/><path d="M12.5 31.65v-6.5h6.14c2.03 0 3.55-.4 4.55-1.2 1-.83 1.5-2.2 1.5-4.1 0-1.8-.47-3.13-1.4-4-.9-.9-2.28-1.35-4.15-1.35H12.5V8h7.1c1.9 0 3.67.23 5.3.7a11.3 11.3 0 0 1 4.25 2.1A9.62 9.62 0 0 1 32 14.45c.7 1.47 1.05 3.23 1.05 5.3 0 2.63-.6 4.83-1.8 6.6a10.69 10.69 0 0 1-5.1 4c-2.23.87-4.97 1.3-8.2 1.3H12.5ZM6.43 41V8h8.1v33h-8.1Zm29.1 0V6h8.1v35h-8.1Zm18.67.7c-1.34 0-2.6-.23-3.8-.7a6.57 6.57 0 0 1-2.95-2.25 7.13 7.13 0 0 1-1.15-4.25c0-1.63.31-2.95.95-3.95a6.92 6.92 0 0 1 2.55-2.45 12.4 12.4 0 0 1 3.5-1.4c1.26-.33 2.51-.62 3.75-.85 1.73-.33 3.03-.6 3.9-.8.86-.2 1.45-.43 1.75-.7.33-.27.5-.63.5-1.1 0-.97-.37-1.7-1.1-2.2-.7-.5-1.64-.75-2.8-.75a6.4 6.4 0 0 0-2.2.4c-.74.27-1.34.75-1.8 1.45a4.8 4.8 0 0 0-.65 2.9l-7.2-.5c-.07-2.1.25-3.83.95-5.2a8 8 0 0 1 2.85-3.25 12.5 12.5 0 0 1 4-1.7c1.46-.33 2.91-.5 4.35-.5 2.63 0 4.8.5 6.5 1.5a8.67 8.67 0 0 1 3.75 4.25 16.13 16.13 0 0 1 1.25 6.7V41h-7v-7.55h-.3a8.58 8.58 0 0 1-1.5 4.15 9.42 9.42 0 0 1-8.1 4.1Zm3.35-5.9a5.56 5.56 0 0 0 5.1-3.45c.36-.9.55-2 .55-3.3v-1.2l1.35-.15c-.27.43-.72.78-1.35 1.05-.6.27-1.29.48-2.05.65-.77.13-1.55.28-2.35.45-.77.13-1.49.33-2.15.6a4.3 4.3 0 0 0-1.65 1c-.4.4-.6.97-.6 1.7 0 .87.3 1.53.9 2a3.9 3.9 0 0 0 2.25.65Zm26.3 13a24.13 24.13 0 0 1-6.9-1.05 17.7 17.7 0 0 1-3.35-1.4l1.85-8.15a10.36 10.36 0 0 0 4 2.4c1.5.47 2.83.7 4 .7 1.63 0 3-.32 4.1-.95a6.24 6.24 0 0 0 2.55-2.85c.56-1.27.85-2.8.85-4.6v-4.6h-.45a14.65 14.65 0 0 1-1.15 5.75 7.04 7.04 0 0 1-2.75 3.25 7.72 7.72 0 0 1-4.05 1.05 7.6 7.6 0 0 1-4.75-1.45 8.83 8.83 0 0 1-2.8-4.35 23.6 23.6 0 0 1-.95-7.25V14.6h8.05v8.6c0 2.83.3 4.9.9 6.2.6 1.3 1.55 1.95 2.85 1.95.66 0 1.25-.17 1.75-.5.53-.37.96-.9 1.3-1.6.33-.73.58-1.63.75-2.7.16-1.1.25-2.37.25-3.8V14.6h8.05v18.6c0 1.8-.19 3.5-.55 5.1a15.46 15.46 0 0 1-1.65 4.25 11.82 11.82 0 0 1-6.75 5.5c-1.5.5-3.22.75-5.15.75Z"/></mask><path fill="#fff" d="M12.5 31.65v-6.5h6.14c2.03 0 3.55-.4 4.55-1.2 1-.83 1.5-2.2 1.5-4.1 0-1.8-.47-3.13-1.4-4-.9-.9-2.28-1.35-4.15-1.35H12.5V8h7.1c1.9 0 3.67.23 5.3.7a11.3 11.3 0 0 1 4.25 2.1A9.62 9.62 0 0 1 32 14.45c.7 1.47 1.05 3.23 1.05 5.3 0 2.63-.6 4.83-1.8 6.6a10.69 10.69 0 0 1-5.1 4c-2.23.87-4.97 1.3-8.2 1.3H12.5ZM6.43 41V8h8.1v33h-8.1Zm29.1 0V6h8.1v35h-8.1Zm18.67.7c-1.34 0-2.6-.23-3.8-.7a6.57 6.57 0 0 1-2.95-2.25 7.13 7.13 0 0 1-1.15-4.25c0-1.63.31-2.95.95-3.95a6.92 6.92 0 0 1 2.55-2.45 12.4 12.4 0 0 1 3.5-1.4c1.26-.33 2.51-.62 3.75-.85 1.73-.33 3.03-.6 3.9-.8.86-.2 1.45-.43 1.75-.7.33-.27.5-.63.5-1.1 0-.97-.37-1.7-1.1-2.2-.7-.5-1.64-.75-2.8-.75a6.4 6.4 0 0 0-2.2.4c-.74.27-1.34.75-1.8 1.45a4.8 4.8 0 0 0-.65 2.9l-7.2-.5c-.07-2.1.25-3.83.95-5.2a8 8 0 0 1 2.85-3.25 12.5 12.5 0 0 1 4-1.7c1.46-.33 2.91-.5 4.35-.5 2.63 0 4.8.5 6.5 1.5a8.67 8.67 0 0 1 3.75 4.25 16.13 16.13 0 0 1 1.25 6.7V41h-7v-7.55h-.3a8.58 8.58 0 0 1-1.5 4.15 9.42 9.42 0 0 1-8.1 4.1Zm3.35-5.9a5.56 5.56 0 0 0 5.1-3.45c.36-.9.55-2 .55-3.3v-1.2l1.35-.15c-.27.43-.72.78-1.35 1.05-.6.27-1.29.48-2.05.65-.77.13-1.55.28-2.35.45-.77.13-1.49.33-2.15.6a4.3 4.3 0 0 0-1.65 1c-.4.4-.6.97-.6 1.7 0 .87.3 1.53.9 2a3.9 3.9 0 0 0 2.25.65Zm26.3 13a24.13 24.13 0 0 1-6.9-1.05 17.7 17.7 0 0 1-3.35-1.4l1.85-8.15a10.36 10.36 0 0 0 4 2.4c1.5.47 2.83.7 4 .7 1.63 0 3-.32 4.1-.95a6.24 6.24 0 0 0 2.55-2.85c.56-1.27.85-2.8.85-4.6v-4.6h-.45a14.65 14.65 0 0 1-1.15 5.75 7.04 7.04 0 0 1-2.75 3.25 7.72 7.72 0 0 1-4.05 1.05 7.6 7.6 0 0 1-4.75-1.45 8.83 8.83 0 0 1-2.8-4.35 23.6 23.6 0 0 1-.95-7.25V14.6h8.05v8.6c0 2.83.3 4.9.9 6.2.6 1.3 1.55 1.95 2.85 1.95.66 0 1.25-.17 1.75-.5.53-.37.96-.9 1.3-1.6.33-.73.58-1.63.75-2.7.16-1.1.25-2.37.25-3.8V14.6h8.05v18.6c0 1.8-.19 3.5-.55 5.1a15.46 15.46 0 0 1-1.65 4.25 11.82 11.82 0 0 1-6.75 5.5c-1.5.5-3.22.75-5.15.75Z"/><path fill="#000" d="M12.5 31.65H12v.5h.5v-.5Zm0-6.5v-.5H12v.5h.5Zm10.7-1.2.3.39h.01l-.32-.39Zm.1-8.1-.36.35v.01h.01l.34-.36ZM12.5 14.5H12v.5h.5v-.5Zm0-6.5v-.5H12V8h.5Zm12.4.7-.15.48h.01l.13-.48Zm4.24 2.1-.31.39.31-.39ZM32 14.45l-.45.2v.02l.45-.22Zm-.75 11.9-.41-.28.41.28Zm-5.1 4 .18.47-.18-.47ZM6.44 41h-.5v.5h.5V41Zm0-33v-.5h-.5V8h.5Zm8.1 0h.5v-.5h-.5V8Zm0 33v.5h.5V41h-.5Zm-2.05-9.35h.5v-6.5h-1v6.5h.5Zm0-6.5v.5h6.15v-1H12.5v.5Zm6.15 0v.5c2.09 0 3.74-.4 4.86-1.31l-.3-.39-.32-.39c-.87.7-2.26 1.09-4.24 1.09v.5Zm4.55-1.2.32.38c1.16-.96 1.68-2.5 1.68-4.48h-1c0 1.82-.48 3.01-1.32 3.72l.32.38Zm1.5-4.1h.5c0-1.88-.49-3.37-1.56-4.37l-.34.37-.34.37c.8.73 1.24 1.91 1.24 3.63h.5Zm-1.4-4 .36-.35c-1.03-1.03-2.57-1.5-4.5-1.5v1c1.79 0 3.02.43 3.79 1.2l.35-.35Zm-4.15-1.35V14H12.5v1h6.65v-.5Zm-6.65 0h.5V8h-1v6.5h.5Zm0-6.5v.5h7.1v-1h-7.1V8Zm7.1 0v.5c1.86 0 3.58.23 5.16.68l.14-.48.14-.48c-1.68-.48-3.5-.72-5.44-.72V8Zm5.3.7-.13.48a10.8 10.8 0 0 1 4.07 2l.31-.38.32-.39a11.8 11.8 0 0 0-4.44-2.2l-.13.49Zm4.25 2.1-.3.4a9.12 9.12 0 0 1 2.7 3.46l.45-.21.46-.2c-.7-1.54-1.7-2.83-3-3.84l-.3.39ZM32 14.45l-.45.22c.66 1.38 1 3.07 1 5.08h1c0-2.12-.36-3.97-1.1-5.52l-.45.22Zm1.05 5.3h-.5a11 11 0 0 1-1.71 6.32l.41.28.42.28a11.98 11.98 0 0 0 1.88-6.88h-.5Zm-1.8 6.6-.42-.28a10.19 10.19 0 0 1-4.87 3.82l.2.46.18.46c2.31-.93 4.1-2.32 5.33-4.18l-.42-.28Zm-5.1 4-.18-.47a22.26 22.26 0 0 1-8.02 1.27v1c3.28 0 6.07-.44 8.38-1.33l-.18-.47Zm-8.2 1.3v-.5H12.5v1h5.45v-.5ZM6.44 41h.5V8h-1v33h.5Zm0-33v.5h8.1v-1h-8.1V8Zm8.1 0h-.5v33h1V8h-.5Zm0 33v-.5h-8.1v1h8.1V41Zm21 0h-.5v.5h.5V41Zm0-35v-.5h-.5V6h.5Zm8.1 0h.5v-.5h-.5V6Zm0 35v.5h.5V41h-.5Zm-8.1 0h.5V6h-1v35h.5Zm0-35v.5h8.1v-1h-8.1V6Zm8.1 0h-.5v35h1V6h-.5Zm0 35v-.5h-8.1v1h8.1V41Zm6.77 0 .18-.47-.18.47Zm-2.95-2.25-.4.3.4-.3Zm-.2-8.2.42.27-.42-.27Zm2.55-2.45.24.44.01-.01-.25-.43Zm3.5-1.4.11.49h.01l-.12-.49Zm3.75-.85.09.5-.1-.5Zm3.9-.8.1.49-.1-.49Zm1.75-.7-.32-.39-.02.02.34.37Zm-.6-3.3-.3.4.02.01.28-.41Zm-5-.35.17.47-.17-.47Zm-1.8 1.45.4.29.01-.01-.41-.28Zm-.65 2.9-.04.5.55.04-.01-.55-.5.01Zm-7.2-.5-.5.02.01.45.45.03.04-.5Zm.95-5.2.44.23-.44-.23Zm2.85-3.25.27.42-.27-.42Zm4-1.7-.11-.49.1.49Zm10.85 1-.26.43h.01l.25-.43Zm3.75 4.25-.46.2.46-.2ZM71.1 41v.5h.5V41h-.5Zm-7 0h-.5v.5h.5V41Zm0-7.55h.5v-.5h-.5v.5Zm-.3 0v-.5h-.46l-.04.46.5.04Zm-1.5 4.15-.42-.28.42.28Zm-3.35 3 .23.44-.23-.44Zm.4-5.1.15.48h.01l-.16-.48Zm1.85-1.1-.32-.38h-.01l.33.38Zm1.45-2.05.46.2v-.01l-.46-.19Zm.55-4.5-.06-.5-.44.05v.45h.5Zm1.35-.15.42.26.54-.87-1.02.11.06.5Zm-1.35 1.05-.2-.46.2.46Zm-2.05.65.08.5h.01l.01-.01-.1-.49Zm-2.35.45.08.5h.01v-.01l-.1-.49Zm-2.15.6.16.47h.02l-.18-.47Zm-1.35 4.7-.31.4H55l.01.01.29-.41Zm-1.1 6.55v-.5a9.9 9.9 0 0 1-3.62-.67l-.18.47-.18.47c1.26.49 2.58.73 3.98.73v-.5Zm-3.8-.7.18-.47a6.07 6.07 0 0 1-2.73-2.08l-.4.3-.4.3a7.07 7.07 0 0 0 3.17 2.42l.18-.47Zm-2.95-2.25.4-.3a6.64 6.64 0 0 1-1.05-3.95h-1c0 1.84.4 3.37 1.24 4.54l.4-.29ZM46.3 34.5h.5c0-1.57.3-2.79.87-3.68l-.42-.27-.43-.27a7.78 7.78 0 0 0-1.02 4.22h.5Zm.95-3.95.42.26a6.42 6.42 0 0 1 2.37-2.27l-.24-.44-.25-.44a7.42 7.42 0 0 0-2.73 2.63l.43.26Zm2.55-2.45.25.43c1.02-.6 2.14-1.05 3.36-1.34l-.11-.49-.12-.49c-1.31.31-2.53.8-3.64 1.46l.26.43Zm3.5-1.4.12.48c1.26-.33 2.5-.6 3.72-.84l-.1-.49-.09-.5c-1.24.24-2.5.53-3.78.87l.13.48Zm3.75-.85.1.5c1.73-.34 3.03-.61 3.91-.81l-.11-.49-.12-.49c-.85.2-2.15.47-3.88.8l.1.49Zm3.9-.8.1.49a4.6 4.6 0 0 0 1.98-.82l-.33-.37-.34-.37c-.2.17-.66.38-1.53.58l.12.49Zm1.75-.7.3.39c.47-.37.7-.89.7-1.49h-1c0 .33-.11.55-.32.71l.32.39Zm.5-1.1h.5a3 3 0 0 0-1.32-2.61l-.28.41-.28.41c.58.4.88.97.88 1.79h.5Zm-1.1-2.2.29-.4a5.21 5.21 0 0 0-3.1-.85v1c1.1 0 1.93.24 2.52.66l.29-.41Zm-2.8-.75v-.5c-.8 0-1.59.14-2.37.43l.17.47.17.47a5.9 5.9 0 0 1 2.03-.37v-.5Zm-2.2.4-.17-.47c-.85.3-1.53.86-2.05 1.64l.42.28.41.28c.42-.62.93-1.03 1.56-1.26l-.17-.47Zm-1.8 1.45-.41-.29c-.56.8-.78 1.89-.74 3.2l.5-.01.5-.01c-.04-1.22.18-2.06.56-2.6l-.41-.29Zm-.65 2.9.03-.5-7.2-.5-.03.5-.04.5 7.2.5.04-.5Zm-7.2-.5.5-.02a9.93 9.93 0 0 1 .9-4.95l-.45-.23-.45-.23a11.1 11.1 0 0 0-1 5.45l.5-.02Zm.95-5.2.44.22a7.5 7.5 0 0 1 2.68-3.05l-.27-.42-.27-.42a8.5 8.5 0 0 0-3.03 3.45l.45.22Zm2.85-3.25.27.42a12 12 0 0 1 3.84-1.63l-.11-.49-.12-.49a13 13 0 0 0-4.16 1.77l.28.42Zm4-1.7.1.49c1.44-.33 2.85-.49 4.25-.49v-1c-1.48 0-2.96.17-4.46.51l.1.49Zm4.35-.5v.5c2.57 0 4.64.49 6.24 1.43l.26-.43.25-.43c-1.8-1.06-4.06-1.57-6.75-1.57v.5Zm6.5 1.5-.25.43a8.17 8.17 0 0 1 3.54 4.02l.46-.2.46-.2a9.17 9.17 0 0 0-3.97-4.48l-.24.43Zm3.75 4.25-.46.2c.8 1.76 1.2 3.92 1.2 6.5h1c0-2.68-.42-5-1.29-6.9l-.45.2Zm1.25 6.7h-.5v4.7h1v-4.7h-.5Zm0 4.7h-.5v3.35h1v-3.36h-.5Zm0 3.35h-.5v3.3h1v-3.3h-.5Zm0 3.3h-.5V41h1v-3.3h-.5Zm0 3.3v-.5h-7v1h7V41Zm-7 0h.5v-3.66h-1V41h.5Zm0-3.65h.5v-3.91h-1v3.92h.5Zm0-3.9v-.5h-.3v1h.3v-.5Zm-.3 0-.5-.04a8.09 8.09 0 0 1-1.42 3.9l.42.29.41.28a9.08 9.08 0 0 0 1.59-4.39l-.5-.04Zm-1.5 4.15-.42-.28a8.92 8.92 0 0 1-3.17 2.84l.24.44.24.44a9.92 9.92 0 0 0 3.52-3.16l-.41-.28Zm-3.35 3-.24-.44a9.4 9.4 0 0 1-4.51 1.04v1c1.87 0 3.53-.38 4.98-1.16l-.23-.44Zm-1.4-4.8v.5c.62 0 1.27-.11 1.95-.32l-.15-.48-.15-.48c-.6.19-1.15.28-1.65.28v.5Zm1.8-.3.16.47c.73-.25 1.4-.66 2.02-1.2l-.33-.37-.33-.37c-.53.46-1.09.79-1.69 1l.17.47Zm1.85-1.1.32.38a5.78 5.78 0 0 0 1.59-2.24l-.46-.19-.46-.2a4.8 4.8 0 0 1-1.31 1.87l.32.38Zm1.45-2.05.46.19c.4-.98.59-2.15.59-3.49h-1c0 1.26-.18 2.29-.52 3.11l.47.19Zm.55-3.3h.5v-1.2h-1v1.2h.5Zm0-1.2.05.5 1.35-.15-.05-.5-.06-.5-1.35.15.06.5Zm1.35-.15-.43-.26c-.2.32-.55.6-1.12.85l.2.46.2.46c.69-.3 1.24-.7 1.57-1.25l-.42-.26Zm-1.35 1.05-.2-.46c-.57.25-1.22.46-1.96.62l.1.49.11.49c.8-.17 1.51-.4 2.15-.68l-.2-.46Zm-2.05.65-.09-.5-2.36.46.1.49.1.49c.8-.17 1.57-.32 2.33-.45l-.08-.49Zm-2.35.45-.09-.5a12 12 0 0 0-2.25.64l.19.46.18.46c.63-.25 1.32-.44 2.05-.57l-.08-.49Zm-2.15.6-.17-.47a4.8 4.8 0 0 0-1.84 1.12l.36.35.35.35a3.8 3.8 0 0 1 1.46-.88l-.16-.47Zm-1.65 1-.36-.35a2.8 2.8 0 0 0-.74 2.05h1c0-.64.17-1.07.45-1.35l-.35-.35Zm-.6 1.7h-.5c0 1 .35 1.82 1.09 2.4l.3-.4.31-.4c-.46-.35-.7-.86-.7-1.6h-.5Zm.9 2-.29.41c.73.5 1.58.74 2.54.74v-1c-.78 0-1.43-.2-1.97-.56l-.28.41Zm25.25 13.4.06-.5-.06.5Zm-3.6-.8.14-.48-.14.48Zm-3.35-1.4-.5-.11-.08.37.34.18.24-.44Zm1.85-8.15.34-.36-.64-.6-.2.85.5.11Zm4 2.4-.16.48.16-.48Zm8.1-.25.25.43-.25-.43Zm2.55-2.85.45.2-.45-.2Zm.85-9.2h.5v-.5h-.5v.5Zm-.45 0v-.5h-.49l-.01.49.5.01Zm-1.15 5.75-.46-.21.46.21ZM86.6 37.3l-.26-.43.26.43Zm-8.8-.4-.31.4.3-.4ZM75 32.55l.47-.16-.47.16Zm-.95-17.95v-.5h-.5v.5h.5Zm8.05 0h.5v-.5h-.5v.5Zm.9 14.8-.46.21.46-.21Zm4.6 1.45.27.42-.27-.42Zm1.3-1.6.45.21-.45-.21Zm.75-2.7.49.08-.5-.08Zm.25-11.95v-.5h-.5v.5h.5Zm8.05 0h.5v-.5h-.5v.5Zm-.55 23.7.48.11-.48-.11Zm-1.65 4.25-.44-.25.44.25Zm-2.8 3.35-.32-.39.32.39ZM89 48.05l-.16-.48.16.48Zm-5.15.75v-.5c-.98 0-2.05-.08-3.24-.25l-.06.5-.07.5a26 26 0 0 0 3.37.25v-.5Zm-3.3-.25.06-.5a22.76 22.76 0 0 1-3.52-.78l-.14.48-.15.48c1.22.37 2.45.64 3.68.82l.07-.5Zm-3.6-.8.14-.48a17.2 17.2 0 0 1-3.25-1.36l-.24.44-.24.44a18.2 18.2 0 0 0 3.44 1.44l.15-.48Zm-3.35-1.4.48.11 1.85-8.15-.48-.11-.5-.11-1.84 8.15.49.11Zm1.85-8.15-.35.36a10.86 10.86 0 0 0 4.2 2.52l.15-.48.15-.48a9.86 9.86 0 0 1-3.81-2.28l-.34.36Zm4 2.4-.15.48c1.53.47 2.91.72 4.15.72v-1c-1.1 0-2.39-.22-3.86-.68l-.14.48Zm4 .7v.5a8.6 8.6 0 0 0 4.35-1.02l-.25-.43-.25-.43a7.6 7.6 0 0 1-3.85.88v.5Zm4.1-.95.25.43a6.74 6.74 0 0 0 2.75-3.07l-.45-.21-.46-.2a5.74 5.74 0 0 1-2.35 2.62l.26.43Zm2.55-2.85.45.2c.6-1.34.9-2.95.9-4.8h-1c0 1.75-.28 3.2-.81 4.4l.46.2Zm.85-4.6h.5v-4.6h-1v4.6h.5Zm0-4.6v-.5h-.45v1h.45v-.5Zm-.45 0-.5-.01a14.46 14.46 0 0 1-1.1 5.55l.45.21.45.21a15.13 15.13 0 0 0 1.2-5.95l-.5-.01Zm-1.15 5.75-.46-.2a6.54 6.54 0 0 1-2.55 3.02l.26.43.25.43a7.54 7.54 0 0 0 2.95-3.47l-.45-.21ZM86.6 37.3l-.26-.43a7.22 7.22 0 0 1-3.8.98v1c1.62 0 3.06-.37 4.31-1.12l-.25-.43Zm-4.05 1.05v-.5a7.1 7.1 0 0 1-4.45-1.35l-.3.4-.3.4a8.1 8.1 0 0 0 5.05 1.55v-.5ZM77.8 36.9l.3-.4a8.34 8.34 0 0 1-2.63-4.1l-.47.15-.48.16c.66 2 1.64 3.54 2.97 4.58l.3-.39ZM75 32.55l.47-.16a23.12 23.12 0 0 1-.92-7.09h-1c0 2.93.32 5.4.97 7.4l.48-.15Zm-.95-7.25h.5V14.6h-1v10.7h.5Zm0-10.7v.5h8.05v-1h-8.05v.5Zm8.05 0h-.5v8.6h1v-8.6h-.5Zm0 8.6h-.5c0 2.85.3 5 .94 6.41l.46-.21.45-.2c-.55-1.2-.85-3.18-.85-6h-.5Zm.9 6.2-.46.21c.33.71.77 1.28 1.34 1.67.56.38 1.23.57 1.97.57v-1c-.57 0-1.03-.14-1.41-.4a2.99 2.99 0 0 1-1-1.26l-.44.21Zm2.85 1.95v.5a3.6 3.6 0 0 0 2.02-.58l-.27-.42-.28-.42c-.41.28-.9.42-1.47.42v.5Zm1.75-.5.28.41a4.43 4.43 0 0 0 1.47-1.8l-.45-.21-.46-.21c-.3.63-.68 1.09-1.13 1.4l.29.41Zm1.3-1.6.45.2c.36-.78.62-1.73.79-2.82l-.5-.08-.49-.08a9.98 9.98 0 0 1-.71 2.57l.46.21Zm.75-2.7.49.07c.17-1.13.26-2.42.26-3.87h-1c0 1.41-.09 2.66-.25 3.73l.5.07Zm.25-3.8h.5V14.6h-1v8.15h.5Zm0-8.15v.5h8.05v-1H89.9v.5Zm8.05 0h-.5v18.6h1V14.6h-.5Zm0 18.6h-.5c0 1.77-.18 3.43-.54 4.99l.49.11.48.11c.38-1.64.57-3.38.57-5.21h-.5Zm-.55 5.1-.5-.11a14.65 14.65 0 0 1-1.59 4.11l.44.25.43.25a15.96 15.96 0 0 0 1.7-4.39l-.48-.11Zm-1.65 4.25-.44-.25c-.7 1.25-1.6 2.32-2.68 3.21l.32.39.31.39a12.32 12.32 0 0 0 2.92-3.5l-.43-.24Zm-2.8 3.35-.33-.38a10.9 10.9 0 0 1-3.78 2.05l.16.48.15.48a12.07 12.07 0 0 0 4.12-2.25l-.32-.38ZM89 48.05l-.16-.47c-1.44.48-3.1.72-5 .72v1c1.98 0 3.75-.26 5.31-.78l-.15-.47Z" mask="url(#f)"/></g></g></g><defs><radialGradient id="d" cx="0" cy="0" r="1" gradientTransform="matrix(-98 -20 20 -98 103.5 16)" gradientUnits="userSpaceOnUse"><stop stop-color="#33CAFF"/><stop offset=".25" stop-color="#8169FF"/><stop offset=".48" stop-color="#FF7FE5"/><stop offset=".69" stop-color="#FFE475"/><stop offset="1" stop-color="#2FFFE7"/></radialGradient><clipPath id="a"><path fill="#fff" d="M0 0h106v57H0z"/></clipPath><filter id="e" width="94.51" height="45.8" x="5.94" y="5.5" color-interpolation-filters="sRGB" filterUnits="userSpaceOnUse"><feFlood flood-opacity="0" result="BackgroundImageFix"/><feColorMatrix in="SourceAlpha" result="hardAlpha" values="0 0 0 0 0 0 0 0 0 0 0 0 0 0 0 0 0 0 127 0"/><feOffset dx="2" dy="2"/><feComposite in2="hardAlpha" operator="out"/><feColorMatrix values="0 0 0 0 0 0 0 0 0 0 0 0 0 0 0 0 0 0 1 0"/><feBlend in2="BackgroundImageFix" result="effect1_dropShadow_456_33"/><feBlend in="SourceGraphic" in2="effect1_dropShadow_456_33" result="shape"/></filter></defs></svg>